<svg viewBox="0 0 390 274" fill="none" xmlns="http://www.w3.org/2000/svg"><g filter="url(#filter0_d)"><rect x="24" y="48" width="191" height="129" rx="4" fill="#fff"/><path fill="#F6F6F6" d="M36 61h151v11H36z"/><path fill="#F1F1F1" d="M36 80h67v11H36z"/><path fill="#E2E2E2" d="M36 100h104v11H36z"/><circle cx="48.5" cy="141.5" r="12.5" fill="#F1F1F1"/><path fill="#E2E2E2" d="M70 129h84v12H70zM70 148h56v12H70z"/></g><g filter="url(#filter1_d)"><rect x="113" y="113" width="191" height="129" rx="4" fill="#fff"/><path fill="#F6F6F6" d="M125 126h151v11H125z"/><path fill="#F1F1F1" d="M125 145h67v11h-67z"/><path fill="#E2E2E2" d="M125 165h104v11H125z"/><circle cx="137.5" cy="206.5" r="12.5" fill="#F1F1F1"/><path fill="#E2E2E2" d="M159 194h84v12h-84zM159 213h56v12h-56z"/></g><g filter="url(#filter2_d)"><rect x="180" y="16" width="191" height="129" rx="4" fill="#fff"/><path fill="#F6F6F6" d="M192 29h151v11H192z"/><path fill="#F1F1F1" d="M192 48h67v11h-67z"/><path fill="#E2E2E2" d="M192 68h104v11H192z"/><circle cx="204.5" cy="109.5" r="12.5" fill="#F1F1F1"/><path fill="#E2E2E2" d="M226 97h84v12h-84zM226 116h56v12h-56z"/></g><defs><filter id="filter0_d" x="0" y="32" width="239" height="177" filterUnits="userSpaceOnUse" color-interpolation-filters="sRGB"><feFlood flood-opacity="0" result="BackgroundImageFix"/><feColorMatrix in="SourceAlpha" values="0 0 0 0 0 0 0 0 0 0 0 0 0 0 0 0 0 0 127 0"/><feOffset dy="8"/><feGaussianBlur stdDeviation="12"/><feColorMatrix values="0 0 0 0 0 0 0 0 0 0 0 0 0 0 0 0 0 0 0.05 0"/><feBlend in2="BackgroundImageFix" result="effect1_dropShadow"/><feBlend in="SourceGraphic" in2="effect1_dropShadow" result="shape"/></filter><filter id="filter1_d" x="89" y="97" width="239" height="177" filterUnits="userSpaceOnUse" color-interpolation-filters="sRGB"><feFlood flood-opacity="0" result="BackgroundImageFix"/><feColorMatrix in="SourceAlpha" values="0 0 0 0 0 0 0 0 0 0 0 0 0 0 0 0 0 0 127 0"/><feOffset dy="8"/><feGaussianBlur stdDeviation="12"/><feColorMatrix values="0 0 0 0 0 0 0 0 0 0 0 0 0 0 0 0 0 0 0.07 0"/><feBlend in2="BackgroundImageFix" result="effect1_dropShadow"/><feBlend in="SourceGraphic" in2="effect1_dropShadow" result="shape"/></filter><filter id="filter2_d" x="156" y="0" width="239" height="177" filterUnits="userSpaceOnUse" color-interpolation-filters="sRGB"><feFlood flood-opacity="0" result="BackgroundImageFix"/><feColorMatrix in="SourceAlpha" values="0 0 0 0 0 0 0 0 0 0 0 0 0 0 0 0 0 0 127 0"/><feOffset dy="8"/><feGaussianBlur stdDeviation="12"/><feColorMatrix values="0 0 0 0 0 0 0 0 0 0 0 0 0 0 0 0 0 0 0.1 0"/><feBlend in2="BackgroundImageFix" result="effect1_dropShadow"/><feBlend in="SourceGraphic" in2="effect1_dropShadow" result="shape"/></filter></defs></svg>
