<svg width="100%" height="100%" viewBox="0 0 949 1177" fill="none" xmlns="http://www.w3.org/2000/svg">
    <mask id="mask0" mask-type="alpha" maskUnits="userSpaceOnUse" x="0" y="0" width="949" height="1177">
        <rect width="949" height="1177" fill="#0066FF"/>
    </mask>
    <g mask="url(#mask0)">
        <g opacity="0.20102">
            <mask maskUnits="userSpaceOnUse" x="0" y="0" width="0" height="0" fill="black">
                <rect fill="white" width="0" height="0"/>
            </mask>
            <path d="M-249.238 582.825C-248.918 583.276 -248.294 583.381 -247.843 583.061L-240.507 577.848C-240.057 577.528 -239.951 576.904 -240.271 576.454C-240.591 576.003 -241.215 575.898 -241.666 576.218L-248.187 580.852L-252.821 574.33C-253.141 573.88 -253.765 573.775 -254.215 574.095C-254.665 574.415 -254.771 575.039 -254.451 575.489L-249.238 582.825ZM-6.45665 -843.805C-6.77656 -844.256 -7.40085 -844.361 -7.85105 -844.041L-15.1874 -838.828C-15.6376 -838.508 -15.7432 -837.884 -15.4233 -837.434C-15.1034 -836.983 -14.4791 -836.878 -14.0289 -837.198L-7.50769 -841.832L-2.87366 -835.311C-2.55375 -834.86 -1.92946 -834.755 -1.47926 -835.075C-1.02907 -835.395 -0.923455 -836.019 -1.24337 -836.469L-6.45665 -843.805ZM-247.437 582.413L-245.492 570.917L-247.464 570.584L-249.409 582.079L-247.437 582.413ZM-241.602 547.926L-237.713 524.934L-239.685 524.601L-243.574 547.592L-241.602 547.926ZM-233.823 501.943L-229.934 478.951L-231.906 478.618L-235.795 501.609L-233.823 501.943ZM-226.044 455.96L-222.155 432.968L-224.127 432.635L-228.016 455.626L-226.044 455.96ZM-218.265 409.977L-214.376 386.985L-216.348 386.652L-220.237 409.643L-218.265 409.977ZM-210.486 363.994L-206.597 341.002L-208.569 340.669L-212.458 363.66L-210.486 363.994ZM-202.707 318.011L-198.818 295.019L-200.79 294.686L-204.679 317.677L-202.707 318.011ZM-194.928 272.028L-191.039 249.036L-193.01 248.703L-196.9 271.694L-194.928 272.028ZM-187.149 226.045L-183.259 203.053L-185.231 202.72L-189.121 225.711L-187.149 226.045ZM-179.37 180.062L-175.48 157.07L-177.452 156.737L-181.342 179.728L-179.37 180.062ZM-171.591 134.079L-167.701 111.087L-169.673 110.754L-173.563 133.745L-171.591 134.079ZM-163.812 88.0958L-159.922 65.1044L-161.894 64.7708L-165.784 87.7622L-163.812 88.0958ZM-156.033 42.1129L-152.143 19.1213L-154.115 18.7877L-158.005 41.7792L-156.033 42.1129ZM-148.254 -3.87012L-144.364 -26.8616L-146.336 -27.1952L-150.226 -4.20373L-148.254 -3.87012ZM-140.475 -49.8531L-136.585 -72.8446L-138.557 -73.1782L-142.447 -50.1867L-140.475 -49.8531ZM-132.696 -95.8361L-128.806 -118.828L-130.778 -119.161L-134.668 -96.1697L-132.696 -95.8361ZM-124.916 -141.819L-121.027 -164.811L-122.999 -165.144L-126.888 -142.153L-124.916 -141.819ZM-117.137 -187.802L-113.248 -210.794L-115.22 -211.127L-119.109 -188.136L-117.137 -187.802ZM-109.358 -233.785L-105.469 -256.777L-107.441 -257.11L-111.33 -234.119L-109.358 -233.785ZM-101.579 -279.768L-97.6897 -302.76L-99.6617 -303.093L-103.551 -280.102L-101.579 -279.768ZM-93.8002 -325.751L-89.9107 -348.743L-91.8827 -349.076L-95.7722 -326.085L-93.8002 -325.751ZM-86.0211 -371.734L-82.1316 -394.726L-84.1036 -395.059L-87.9931 -372.068L-86.0211 -371.734ZM-78.2421 -417.717L-74.3525 -440.709L-76.3245 -441.042L-80.2141 -418.051L-78.2421 -417.717ZM-70.463 -463.7L-66.5735 -486.691L-68.5455 -487.025L-72.435 -464.034L-70.463 -463.7ZM-62.684 -509.683L-58.7945 -532.674L-60.7664 -533.008L-64.656 -510.017L-62.684 -509.683ZM-54.9049 -555.666L-51.0154 -578.657L-52.9874 -578.991L-56.8769 -555.999L-54.9049 -555.666ZM-47.1259 -601.649L-43.2364 -624.64L-45.2083 -624.974L-49.0979 -601.982L-47.1259 -601.649ZM-39.3468 -647.632L-35.4573 -670.623L-37.4293 -670.957L-41.3188 -647.965L-39.3468 -647.632ZM-31.5678 -693.614L-27.6783 -716.606L-29.6503 -716.939L-33.5398 -693.948L-31.5678 -693.614ZM-23.7888 -739.597L-19.8992 -762.589L-21.8712 -762.922L-25.7607 -739.931L-23.7888 -739.597ZM-16.0097 -785.58L-12.1202 -808.572L-14.0922 -808.905L-17.9817 -785.914L-16.0097 -785.58ZM-8.23067 -831.563L-6.2858 -843.059L-8.25778 -843.393L-10.2026 -831.897L-8.23067 -831.563Z"
                  fill="#0066FF" mask="url(#)"/>
        </g>
        <g opacity="0.218776">
            <mask maskUnits="userSpaceOnUse" x="0" y="0" width="0" height="0" fill="black">
                <rect fill="white" width="0" height="0"/>
            </mask>
            <path d="M-249.628 592.735C-249.349 593.211 -248.736 593.371 -248.26 593.091L-240.497 588.537C-240.02 588.258 -239.861 587.645 -240.14 587.169C-240.42 586.692 -241.032 586.533 -241.509 586.812L-248.409 590.86L-252.457 583.96C-252.736 583.484 -253.349 583.324 -253.826 583.604C-254.302 583.883 -254.462 584.496 -254.182 584.972L-249.628 592.735ZM110.05 -782.288C109.771 -782.764 109.158 -782.924 108.682 -782.645L100.919 -778.091C100.443 -777.811 100.283 -777.198 100.563 -776.722C100.842 -776.246 101.455 -776.086 101.931 -776.366L108.831 -780.414L112.879 -773.513C113.159 -773.037 113.772 -772.877 114.248 -773.157C114.724 -773.436 114.884 -774.049 114.604 -774.525L110.05 -782.288ZM-247.798 592.481L-244.911 581.4L-246.847 580.896L-249.733 591.977L-247.798 592.481ZM-239.138 559.239L-233.364 537.077L-235.3 536.573L-241.073 558.735L-239.138 559.239ZM-227.591 514.916L-221.817 492.754L-223.753 492.25L-229.526 514.412L-227.591 514.916ZM-216.044 470.593L-210.27 448.431L-212.206 447.927L-217.979 470.089L-216.044 470.593ZM-204.497 426.27L-198.724 404.109L-200.659 403.604L-206.432 425.766L-204.497 426.27ZM-192.95 381.947L-187.177 359.786L-189.112 359.281L-194.886 381.443L-192.95 381.947ZM-181.403 337.624L-175.63 315.463L-177.565 314.958L-183.339 337.12L-181.403 337.624ZM-169.856 293.301L-164.083 271.14L-166.018 270.636L-171.792 292.797L-169.856 293.301ZM-158.309 248.978L-152.536 226.817L-154.471 226.313L-160.245 248.474L-158.309 248.978ZM-146.763 204.655L-140.989 182.494L-142.925 181.99L-148.698 204.151L-146.763 204.655ZM-135.216 160.332L-129.442 138.171L-131.378 137.667L-137.151 159.828L-135.216 160.332ZM-123.669 116.009L-117.895 93.848L-119.831 93.3438L-125.604 115.505L-123.669 116.009ZM-112.122 71.6865L-106.349 49.525L-108.284 49.0208L-114.057 71.1823L-112.122 71.6865ZM-100.575 27.3635L-94.8016 5.20206L-96.737 4.69786L-102.51 26.8593L-100.575 27.3635ZM-89.0282 -16.9594L-83.2547 -39.1209L-85.1901 -39.6251L-90.9636 -17.4636L-89.0282 -16.9594ZM-77.4813 -61.2824L-71.7078 -83.4439L-73.6432 -83.9481L-79.4167 -61.7866L-77.4813 -61.2824ZM-65.9344 -105.605L-60.1609 -127.767L-62.0963 -128.271L-67.8698 -106.11L-65.9344 -105.605ZM-54.3875 -149.928L-48.614 -172.09L-50.5494 -172.594L-56.3229 -150.433L-54.3875 -149.928ZM-42.8406 -194.251L-37.0671 -216.413L-39.0025 -216.917L-44.776 -194.756L-42.8406 -194.251ZM-31.2937 -238.574L-25.5202 -260.736L-27.4556 -261.24L-33.2291 -239.079L-31.2937 -238.574ZM-19.7468 -282.897L-13.9733 -305.059L-15.9087 -305.563L-21.6822 -283.401L-19.7468 -282.897ZM-8.19991 -327.22L-2.42645 -349.382L-4.36185 -349.886L-10.1353 -327.724L-8.19991 -327.22ZM3.34698 -371.543L9.12044 -393.705L7.18504 -394.209L1.41158 -372.047L3.34698 -371.543ZM14.8939 -415.866L20.6673 -438.028L18.7319 -438.532L12.9585 -416.37L14.8939 -415.866ZM26.4407 -460.189L32.2142 -482.35L30.2788 -482.855L24.5053 -460.693L26.4407 -460.189ZM37.9876 -504.512L43.761 -526.673L41.8256 -527.177L36.0522 -505.016L37.9876 -504.512ZM49.5345 -548.835L55.3079 -570.996L53.3725 -571.5L47.5991 -549.339L49.5345 -548.835ZM61.0813 -593.158L66.8548 -615.319L64.9194 -615.823L59.1459 -593.662L61.0813 -593.158ZM72.6282 -637.48L78.4016 -659.642L76.4662 -660.146L70.6928 -637.985L72.6282 -637.48ZM84.175 -681.803L89.9485 -703.965L88.0131 -704.469L82.2396 -682.308L84.175 -681.803ZM95.7219 -726.126L101.495 -748.288L99.5599 -748.792L93.7865 -726.63L95.7219 -726.126ZM107.269 -770.449L110.156 -781.53L108.22 -782.034L105.333 -770.953L107.269 -770.449Z"
                  fill="#0066FF" mask="url(#)"/>
        </g>
        <g opacity="0.236531">
            <mask maskUnits="userSpaceOnUse" x="0" y="0" width="0" height="0" fill="black">
                <rect fill="white" width="0" height="0"/>
            </mask>
            <path d="M-250.006 602.65C-249.769 603.149 -249.173 603.361 -248.674 603.124L-240.543 599.264C-240.045 599.027 -239.832 598.431 -240.069 597.932C-240.306 597.433 -240.902 597.221 -241.401 597.457L-248.628 600.889L-252.059 593.662C-252.296 593.163 -252.893 592.95 -253.392 593.187C-253.89 593.424 -254.103 594.021 -253.866 594.52L-250.006 602.65ZM219.471 -711.437C219.234 -711.936 218.638 -712.148 218.139 -711.911L210.009 -708.051C209.51 -707.814 209.298 -707.218 209.534 -706.719C209.771 -706.22 210.368 -706.007 210.867 -706.244L218.094 -709.676L221.525 -702.449C221.762 -701.95 222.358 -701.737 222.857 -701.974C223.356 -702.211 223.568 -702.808 223.331 -703.307L219.471 -711.437ZM-248.16 602.556L-244.263 591.613L-246.147 590.942L-250.045 601.885L-248.16 602.556ZM-236.469 569.726L-228.674 547.838L-230.558 547.168L-238.353 569.055L-236.469 569.726ZM-220.88 525.951L-213.085 504.064L-214.969 503.393L-222.764 525.28L-220.88 525.951ZM-205.291 482.177L-197.496 460.29L-199.38 459.619L-207.175 481.506L-205.291 482.177ZM-189.702 438.403L-181.907 416.516L-183.791 415.845L-191.586 437.732L-189.702 438.403ZM-174.113 394.628L-166.318 372.741L-168.202 372.07L-175.997 393.958L-174.113 394.628ZM-158.524 350.854L-150.729 328.967L-152.613 328.296L-160.408 350.183L-158.524 350.854ZM-142.935 307.08L-135.14 285.193L-137.024 284.522L-144.819 306.409L-142.935 307.08ZM-127.346 263.306L-119.551 241.418L-121.435 240.747L-129.23 262.635L-127.346 263.306ZM-111.757 219.531L-103.962 197.644L-105.846 196.973L-113.641 218.86L-111.757 219.531ZM-96.1675 175.757L-88.373 153.87L-90.2571 153.199L-98.0516 175.086L-96.1675 175.757ZM-80.5785 131.983L-72.784 110.095L-74.6681 109.425L-82.4626 131.312L-80.5785 131.983ZM-64.9895 88.2083L-57.195 66.3211L-59.0791 65.6502L-66.8736 87.5373L-64.9895 88.2083ZM-49.4005 44.434L-41.6059 22.5468L-43.49 21.8759L-51.2846 43.763L-49.4005 44.434ZM-33.8114 0.659657L-26.0169 -21.2275L-27.901 -21.8985L-35.6955 -0.0113106L-33.8114 0.659657ZM-18.2224 -43.1146L-10.4279 -65.0018L-12.312 -65.6728L-20.1065 -43.7856L-18.2224 -43.1146ZM-2.63337 -86.889L5.16113 -108.776L3.27704 -109.447L-4.51746 -87.56L-2.63337 -86.889ZM12.9556 -130.663L20.7502 -152.55L18.8661 -153.221L11.0715 -131.334L12.9556 -130.663ZM28.5447 -174.438L36.3392 -196.325L34.4551 -196.996L26.6606 -175.109L28.5447 -174.438ZM44.1337 -218.212L51.9282 -240.099L50.0441 -240.77L42.2496 -218.883L44.1337 -218.212ZM59.7227 -261.986L67.5172 -283.873L65.6332 -284.544L57.8386 -262.657L59.7227 -261.986ZM75.3118 -305.761L83.1063 -327.648L81.2222 -328.319L73.4277 -306.432L75.3118 -305.761ZM90.9008 -349.535L98.6953 -371.422L96.8112 -372.093L89.0167 -350.206L90.9008 -349.535ZM106.49 -393.309L114.284 -415.196L112.4 -415.867L104.606 -393.98L106.49 -393.309ZM122.079 -437.083L129.873 -458.971L127.989 -459.642L120.195 -437.754L122.079 -437.083ZM137.668 -480.858L145.462 -502.745L143.578 -503.416L135.784 -481.529L137.668 -480.858ZM153.257 -524.632L161.051 -546.519L159.167 -547.19L151.373 -525.303L153.257 -524.632ZM168.846 -568.406L176.64 -590.294L174.756 -590.965L166.962 -569.077L168.846 -568.406ZM184.435 -612.181L192.229 -634.068L190.345 -634.739L182.551 -612.852L184.435 -612.181ZM200.024 -655.955L207.818 -677.842L205.934 -678.513L198.14 -656.626L200.024 -655.955ZM215.613 -699.729L219.51 -710.672L217.626 -711.343L213.729 -700.4L215.613 -699.729Z"
                  fill="#0066FF" mask="url(#)"/>
        </g>
        <g opacity="0.254286">
            <mask maskUnits="userSpaceOnUse" x="0" y="0" width="0" height="0" fill="black">
                <rect fill="white" width="0" height="0"/>
            </mask>
            <path d="M-250.373 612.571C-250.18 613.089 -249.605 613.353 -249.087 613.16L-240.651 610.023C-240.134 609.831 -239.87 609.255 -240.063 608.737C-240.255 608.22 -240.831 607.956 -241.349 608.149L-248.847 610.937L-251.635 603.439C-251.828 602.921 -252.403 602.657 -252.921 602.85C-253.439 603.042 -253.702 603.618 -253.51 604.136L-250.373 612.571ZM321.084 -632.09C320.892 -632.607 320.316 -632.871 319.799 -632.678L311.363 -629.542C310.845 -629.349 310.582 -628.773 310.774 -628.256C310.967 -627.738 311.542 -627.474 312.06 -627.667L319.558 -630.455L322.347 -622.957C322.539 -622.439 323.115 -622.176 323.633 -622.368C324.15 -622.561 324.414 -623.136 324.221 -623.654L321.084 -632.09ZM-248.526 612.639L-243.78 602.273L-245.598 601.44L-250.345 611.806L-248.526 612.639ZM-234.287 581.54L-224.794 560.807L-226.612 559.975L-236.105 580.707L-234.287 581.54ZM-215.301 540.074L-205.808 519.342L-207.626 518.509L-217.119 539.242L-215.301 540.074ZM-196.315 498.609L-186.822 477.876L-188.64 477.044L-198.133 497.776L-196.315 498.609ZM-177.329 457.144L-167.836 436.411L-169.654 435.578L-179.147 456.311L-177.329 457.144ZM-158.342 415.678L-148.849 394.945L-150.668 394.113L-160.161 414.845L-158.342 415.678ZM-139.356 374.213L-129.863 353.48L-131.682 352.647L-141.175 373.38L-139.356 374.213ZM-120.37 332.747L-110.877 312.014L-112.696 311.182L-122.189 331.915L-120.37 332.747ZM-101.384 291.282L-91.8911 270.549L-93.7096 269.716L-103.203 290.449L-101.384 291.282ZM-82.3981 249.816L-72.905 229.083L-74.7235 228.251L-84.2165 248.984L-82.3981 249.816ZM-63.412 208.351L-53.9189 187.618L-55.7374 186.785L-65.2304 207.518L-63.412 208.351ZM-44.4259 166.885L-34.9328 146.152L-36.7513 145.32L-46.2443 166.053L-44.4259 166.885ZM-25.4398 125.42L-15.9467 104.687L-17.7652 103.854L-27.2582 124.587L-25.4398 125.42ZM-6.45368 83.9542L3.03937 63.2215L1.22093 62.3889L-8.27213 83.1216L-6.45368 83.9542ZM12.5324 42.4887L22.0255 21.756L20.207 20.9234L10.714 41.6561L12.5324 42.4887ZM31.5185 1.02325L41.0116 -19.7095L39.1931 -20.5421L29.7001 0.190624L31.5185 1.02325ZM50.5046 -40.4422L59.9977 -61.175L58.1792 -62.0076L48.6862 -41.2749L50.5046 -40.4422ZM69.4907 -81.9077L78.9838 -102.64L77.1653 -103.473L67.6723 -82.7404L69.4907 -81.9077ZM88.4768 -123.373L97.9699 -144.106L96.1515 -144.939L86.6584 -124.206L88.4768 -123.373ZM107.463 -164.839L116.956 -185.571L115.138 -186.404L105.644 -165.671L107.463 -164.839ZM126.449 -206.304L135.942 -227.037L134.124 -227.87L124.631 -207.137L126.449 -206.304ZM145.435 -247.77L154.928 -268.502L153.11 -269.335L143.617 -248.602L145.435 -247.77ZM164.421 -289.235L173.914 -309.968L172.096 -310.8L162.603 -290.068L164.421 -289.235ZM183.407 -330.701L192.9 -351.433L191.082 -352.266L181.589 -331.533L183.407 -330.701ZM202.393 -372.166L211.886 -392.899L210.068 -393.731L200.575 -372.999L202.393 -372.166ZM221.38 -413.632L230.873 -434.364L229.054 -435.197L219.561 -414.464L221.38 -413.632ZM240.366 -455.097L249.859 -475.83L248.04 -476.662L238.547 -455.93L240.366 -455.097ZM259.352 -496.563L268.845 -517.295L267.026 -518.128L257.533 -497.395L259.352 -496.563ZM278.338 -538.028L287.831 -558.761L286.012 -559.593L276.519 -538.861L278.338 -538.028ZM297.324 -579.493L306.817 -600.226L304.999 -601.059L295.506 -580.326L297.324 -579.493ZM316.31 -620.959L321.056 -631.325L319.238 -632.157L314.492 -621.792L316.31 -620.959Z"
                  fill="#0066FF" mask="url(#)"/>
        </g>
        <g opacity="0.272041">
            <mask maskUnits="userSpaceOnUse" x="0" y="0" width="0" height="0" fill="black">
                <rect fill="white" width="0" height="0"/>
            </mask>
            <path d="M-250.728 622.5C-250.582 623.032 -250.031 623.345 -249.499 623.198L-240.822 620.809C-240.289 620.662 -239.976 620.111 -240.123 619.579C-240.27 619.047 -240.82 618.734 -241.353 618.88L-249.065 621.005L-251.19 613.292C-251.336 612.759 -251.887 612.447 -252.419 612.593C-252.952 612.74 -253.265 613.29 -253.118 613.823L-250.728 622.5ZM414.263 -545.139C414.116 -545.672 413.565 -545.984 413.033 -545.838L404.356 -543.448C403.824 -543.301 403.511 -542.751 403.657 -542.218C403.804 -541.686 404.355 -541.373 404.887 -541.52L412.6 -543.644L414.724 -535.931C414.871 -535.399 415.421 -535.086 415.954 -535.233C416.486 -535.379 416.799 -535.93 416.652 -536.462L414.263 -545.139ZM-248.895 622.728L-243.179 612.667L-244.917 611.679L-250.634 621.74L-248.895 622.728ZM-231.746 592.544L-220.314 572.422L-222.053 571.434L-233.485 591.556L-231.746 592.544ZM-208.882 552.299L-197.45 532.177L-199.189 531.189L-210.621 551.311L-208.882 552.299ZM-186.018 512.054L-174.586 491.932L-176.325 490.944L-187.757 511.066L-186.018 512.054ZM-163.154 471.809L-151.722 451.687L-153.461 450.699L-164.893 470.821L-163.154 471.809ZM-140.29 431.564L-128.857 411.441L-130.596 410.453L-142.028 430.576L-140.29 431.564ZM-117.425 391.319L-105.993 371.196L-107.732 370.208L-119.164 390.331L-117.425 391.319ZM-94.5611 351.074L-83.129 330.951L-84.8679 329.963L-96.3 350.086L-94.5611 351.074ZM-71.6968 310.829L-60.2647 290.706L-62.0037 289.718L-73.4358 309.841L-71.6968 310.829ZM-48.8326 270.584L-37.4005 250.461L-39.1395 249.473L-50.5716 269.596L-48.8326 270.584ZM-25.9684 230.339L-14.5363 210.216L-16.2753 209.228L-27.7074 229.351L-25.9684 230.339ZM-3.10419 190.093L8.32793 169.971L6.58898 168.983L-4.84314 189.105L-3.10419 190.093ZM19.7601 149.848L31.1921 129.726L29.4532 128.738L18.0211 148.86L19.7601 149.848ZM42.6243 109.603L54.0564 89.4807L52.3174 88.4928L40.8853 108.615L42.6243 109.603ZM65.4885 69.3581L76.9206 49.2356L75.1816 48.2477L63.7495 68.3702L65.4885 69.3581ZM88.3527 29.113L99.7848 8.99052L98.0458 8.00258L86.6137 28.1251L88.3527 29.113ZM111.217 -11.1321L122.649 -31.2546L120.91 -32.2425L109.478 -12.12L111.217 -11.1321ZM134.081 -51.3771L145.513 -71.4997L143.774 -72.4876L132.342 -52.3651L134.081 -51.3771ZM156.945 -91.6222L168.377 -111.745L166.639 -112.733L155.206 -92.6102L156.945 -91.6222ZM179.81 -131.867L191.242 -151.99L189.503 -152.978L178.071 -132.855L179.81 -131.867ZM202.674 -172.112L214.106 -192.235L212.367 -193.223L200.935 -173.1L202.674 -172.112ZM225.538 -212.357L236.97 -232.48L235.231 -233.468L223.799 -213.345L225.538 -212.357ZM248.402 -252.603L259.834 -272.725L258.095 -273.713L246.663 -253.591L248.402 -252.603ZM271.267 -292.848L282.699 -312.97L280.96 -313.958L269.528 -293.836L271.267 -292.848ZM294.131 -333.093L305.563 -353.216L303.824 -354.204L292.392 -334.081L294.131 -333.093ZM316.995 -373.338L328.427 -393.461L326.688 -394.449L315.256 -374.326L316.995 -373.338ZM339.859 -413.583L351.292 -433.706L349.553 -434.694L338.12 -414.571L339.859 -413.583ZM362.724 -453.829L374.156 -473.951L372.417 -474.939L360.985 -454.816L362.724 -453.829ZM385.588 -494.074L397.02 -514.196L395.281 -515.184L383.849 -495.062L385.588 -494.074ZM408.452 -534.319L414.168 -544.38L412.429 -545.368L406.713 -535.307L408.452 -534.319Z"
                  fill="#0066FF" mask="url(#)"/>
        </g>
        <g opacity="0.289796">
            <mask maskUnits="userSpaceOnUse" x="0" y="0" width="0" height="0" fill="black">
                <rect fill="white" width="0" height="0"/>
            </mask>
            <path d="M-251.074 632.437C-250.974 632.98 -250.453 633.34 -249.91 633.24L-241.058 631.616C-240.514 631.516 -240.155 630.995 -240.254 630.452C-240.354 629.909 -240.875 629.549 -241.418 629.649L-249.287 631.093L-250.731 623.224C-250.831 622.681 -251.352 622.321 -251.895 622.421C-252.438 622.521 -252.798 623.042 -252.698 623.585L-251.074 632.437ZM498.471 -451.52C498.371 -452.063 497.85 -452.423 497.307 -452.323L488.455 -450.699C487.912 -450.599 487.552 -450.078 487.652 -449.534C487.751 -448.991 488.273 -448.632 488.816 -448.731L496.684 -450.175L498.128 -442.307C498.228 -441.763 498.749 -441.404 499.292 -441.504C499.836 -441.603 500.195 -442.124 500.095 -442.668L498.471 -451.52ZM-249.267 632.825L-242.822 623.483L-244.469 622.347L-250.913 631.689L-249.267 632.825ZM-229.933 604.801L-217.044 586.118L-218.69 584.982L-231.579 603.665L-229.933 604.801ZM-204.155 567.435L-191.265 548.752L-192.912 547.617L-205.801 566.299L-204.155 567.435ZM-178.376 530.07L-165.487 511.387L-167.133 510.251L-180.022 528.934L-178.376 530.07ZM-152.598 492.704L-139.708 474.022L-141.355 472.886L-154.244 491.569L-152.598 492.704ZM-126.819 455.339L-113.93 436.656L-115.576 435.521L-128.465 454.203L-126.819 455.339ZM-101.04 417.974L-88.1512 399.291L-89.7974 398.155L-102.687 416.838L-101.04 417.974ZM-75.2619 380.608L-62.3727 361.926L-64.0189 360.79L-76.9082 379.472L-75.2619 380.608ZM-49.4834 343.243L-36.5942 324.56L-38.2404 323.424L-51.1296 342.107L-49.4834 343.243ZM-23.7049 305.878L-10.8156 287.195L-12.4619 286.059L-25.3511 304.742L-23.7049 305.878ZM2.07363 268.512L14.9629 249.829L13.3167 248.694L0.427396 267.376L2.07363 268.512ZM27.8522 231.147L40.7414 212.464L39.0952 211.328L26.2059 230.011L27.8522 231.147ZM53.6307 193.781L66.5199 175.099L64.8737 173.963L51.9844 192.646L53.6307 193.781ZM79.4092 156.416L92.2985 137.733L90.6523 136.598L77.763 155.28L79.4092 156.416ZM105.188 119.051L118.077 100.368L116.431 99.2322L103.542 117.915L105.188 119.051ZM130.966 81.6852L143.856 63.0025L142.209 61.8668L129.32 80.5495L130.966 81.6852ZM156.745 44.3198L169.634 25.6371L167.988 24.5014L155.099 43.1841L156.745 44.3198ZM182.523 6.9544L195.413 -11.7283L193.767 -12.864L180.877 5.81866L182.523 6.9544ZM208.302 -30.411L221.191 -49.0937L219.545 -50.2294L206.656 -31.5467L208.302 -30.411ZM234.081 -67.7764L246.97 -86.4591L245.324 -87.5949L232.434 -68.9121L234.081 -67.7764ZM259.859 -105.142L272.748 -123.825L271.102 -124.96L258.213 -106.278L259.859 -105.142ZM285.638 -142.507L298.527 -161.19L296.881 -162.326L283.991 -143.643L285.638 -142.507ZM311.416 -179.873L324.306 -198.555L322.659 -199.691L309.77 -181.008L311.416 -179.873ZM337.195 -217.238L350.084 -235.921L348.438 -237.056L335.549 -218.374L337.195 -217.238ZM362.973 -254.603L375.863 -273.286L374.216 -274.422L361.327 -255.739L362.973 -254.603ZM388.752 -291.969L401.641 -310.651L399.995 -311.787L387.106 -293.105L388.752 -291.969ZM414.53 -329.334L427.42 -348.017L425.774 -349.153L412.884 -330.47L414.53 -329.334ZM440.309 -366.7L453.198 -385.382L451.552 -386.518L438.663 -367.835L440.309 -366.7ZM466.088 -404.065L478.977 -422.748L477.331 -423.883L464.441 -405.201L466.088 -404.065ZM491.866 -441.43L498.311 -450.771L496.664 -451.907L490.22 -442.566L491.866 -441.43Z"
                  fill="#0066FF" mask="url(#)"/>
        </g>
        <g opacity="0.307551">
            <mask maskUnits="userSpaceOnUse" x="0" y="0" width="0" height="0" fill="black">
                <rect fill="white" width="0" height="0"/>
            </mask>
            <path d="M-251.41 642.383C-251.358 642.933 -250.87 643.337 -250.32 643.285L-241.36 642.438C-240.81 642.386 -240.406 641.898 -240.458 641.349C-240.51 640.799 -240.998 640.395 -241.548 640.447L-249.513 641.2L-250.265 633.235C-250.317 632.685 -250.805 632.282 -251.355 632.334C-251.905 632.386 -252.308 632.873 -252.256 633.423L-251.41 642.383ZM573.275 -352.201C573.223 -352.751 572.735 -353.154 572.185 -353.102L563.225 -352.256C562.676 -352.204 562.272 -351.716 562.324 -351.166C562.376 -350.616 562.864 -350.213 563.413 -350.265L571.378 -351.017L572.131 -343.053C572.183 -342.503 572.67 -342.099 573.22 -342.151C573.77 -342.203 574.174 -342.691 574.122 -343.241L573.275 -352.201ZM-249.644 642.927L-242.298 634.048L-243.839 632.773L-251.185 641.652L-249.644 642.927ZM-227.607 616.291L-212.916 598.534L-214.457 597.259L-229.148 615.016L-227.607 616.291ZM-198.225 580.777L-183.534 563.02L-185.075 561.745L-199.766 579.502L-198.225 580.777ZM-168.843 545.263L-154.152 527.506L-155.693 526.231L-170.384 543.988L-168.843 545.263ZM-139.461 509.749L-124.77 491.992L-126.311 490.717L-141.002 508.474L-139.461 509.749ZM-110.079 474.235L-95.3885 456.477L-96.9295 455.203L-111.62 472.96L-110.079 474.235ZM-80.6976 438.72L-66.0066 420.963L-67.5476 419.688L-82.2385 437.445L-80.6976 438.72ZM-51.3157 403.206L-36.6247 385.449L-38.1657 384.174L-52.8566 401.931L-51.3157 403.206ZM-21.9337 367.692L-7.24282 349.935L-8.7838 348.66L-23.4747 366.417L-21.9337 367.692ZM7.44813 332.178L22.1391 314.421L20.5981 313.146L5.90715 330.903L7.44813 332.178ZM36.83 296.664L51.521 278.907L49.98 277.632L35.289 295.389L36.83 296.664ZM66.2119 261.15L80.9029 243.393L79.3619 242.118L64.6709 259.875L66.2119 261.15ZM95.5938 225.636L110.285 207.878L108.744 206.604L94.0529 224.361L95.5938 225.636ZM124.976 190.121L139.667 172.364L138.126 171.089L123.435 188.846L124.976 190.121ZM154.358 154.607L169.049 136.85L167.508 135.575L152.817 153.332L154.358 154.607ZM183.74 119.093L198.431 101.336L196.89 100.061L182.199 117.818L183.74 119.093ZM213.122 83.5789L227.813 65.8217L226.272 64.5468L211.581 82.304L213.122 83.5789ZM242.504 48.0647L257.195 30.3075L255.654 29.0326L240.963 46.7898L242.504 48.0647ZM271.885 12.5505L286.576 -5.20659L285.035 -6.48149L270.344 11.2756L271.885 12.5505ZM301.267 -22.9637L315.958 -40.7208L314.417 -41.9957L299.726 -24.2386L301.267 -22.9637ZM330.649 -58.4778L345.34 -76.235L343.799 -77.5099L329.108 -59.7527L330.649 -58.4778ZM360.031 -93.992L374.722 -111.749L373.181 -113.024L358.49 -95.2669L360.031 -93.992ZM389.413 -129.506L404.104 -147.263L402.563 -148.538L387.872 -130.781L389.413 -129.506ZM418.795 -165.02L433.486 -182.777L431.945 -184.052L417.254 -166.295L418.795 -165.02ZM448.177 -200.534L462.868 -218.292L461.327 -219.566L446.636 -201.809L448.177 -200.534ZM477.559 -236.049L492.25 -253.806L490.709 -255.08L476.018 -237.323L477.559 -236.049ZM506.941 -271.563L521.632 -289.32L520.091 -290.595L505.4 -272.837L506.941 -271.563ZM536.322 -307.077L551.013 -324.834L549.472 -326.109L534.782 -308.352L536.322 -307.077ZM565.704 -342.591L573.05 -351.469L571.509 -352.744L564.163 -343.866L565.704 -342.591Z"
                  fill="#0066FF" mask="url(#)"/>
        </g>
        <g opacity="0.325306">
            <mask maskUnits="userSpaceOnUse" x="0" y="0" width="0" height="0" fill="black">
                <rect fill="white" width="0" height="0"/>
            </mask>
            <path d="M-251.737 652.34C-251.733 652.892 -251.282 653.337 -250.73 653.333L-241.73 653.27C-241.178 653.266 -240.733 652.816 -240.737 652.263C-240.741 651.711 -241.192 651.266 -241.744 651.27L-249.744 651.326L-249.799 643.326C-249.803 642.774 -250.254 642.329 -250.806 642.333C-251.358 642.337 -251.803 642.788 -251.799 643.34L-251.737 652.34ZM638.339 -248.176C638.335 -248.728 637.885 -249.172 637.332 -249.169L628.332 -249.106C627.78 -249.102 627.336 -248.651 627.339 -248.099C627.343 -247.547 627.794 -247.102 628.346 -247.106L636.346 -247.162L636.402 -239.162C636.406 -238.61 636.856 -238.165 637.409 -238.169C637.961 -238.173 638.406 -238.624 638.402 -239.176L638.339 -248.176ZM-250.025 653.035L-241.802 644.697L-243.226 643.293L-251.449 651.631L-250.025 653.035ZM-225.356 628.021L-208.91 611.345L-210.334 609.941L-226.78 626.617L-225.356 628.021ZM-192.464 594.669L-176.018 577.993L-177.442 576.589L-193.888 593.265L-192.464 594.669ZM-159.573 561.317L-143.127 544.641L-144.551 543.237L-160.997 559.913L-159.573 561.317ZM-126.681 527.965L-110.235 511.289L-111.659 509.885L-128.105 526.561L-126.681 527.965ZM-93.7892 494.613L-77.3433 477.937L-78.7673 476.533L-95.2132 493.209L-93.7892 494.613ZM-60.8975 461.261L-44.4516 444.586L-45.8756 443.181L-62.3215 459.857L-60.8975 461.261ZM-28.0058 427.91L-11.5599 411.234L-12.984 409.829L-29.4298 426.505L-28.0058 427.91ZM4.88589 394.558L21.3317 377.882L19.9077 376.477L3.46189 393.153L4.88589 394.558ZM37.7776 361.206L54.2234 344.53L52.7994 343.126L36.3536 359.801L37.7776 361.206ZM70.6693 327.854L87.1151 311.178L85.6911 309.774L69.2453 326.45L70.6693 327.854ZM103.561 294.502L120.007 277.826L118.583 276.422L102.137 293.098L103.561 294.502ZM136.453 261.15L152.898 244.474L151.474 243.07L135.029 259.746L136.453 261.15ZM169.344 227.798L185.79 211.122L184.366 209.718L167.92 226.394L169.344 227.798ZM202.236 194.446L218.682 177.77L217.258 176.366L200.812 193.042L202.236 194.446ZM235.128 161.095L251.574 144.419L250.15 143.014L233.704 159.69L235.128 161.095ZM268.019 127.743L284.465 111.067L283.041 109.662L266.595 126.338L268.019 127.743ZM300.911 94.3907L317.357 77.7148L315.933 76.3104L299.487 92.9864L300.911 94.3907ZM333.803 61.0389L350.249 44.3629L348.825 42.9586L332.379 59.6345L333.803 61.0389ZM366.694 27.687L383.14 11.011L381.716 9.60667L365.27 26.2826L366.694 27.687ZM399.586 -5.66491L416.032 -22.3409L414.608 -23.7452L398.162 -7.06927L399.586 -5.66491ZM432.478 -39.0168L448.924 -55.6927L447.5 -57.0971L431.054 -40.4212L432.478 -39.0168ZM465.369 -72.3687L481.815 -89.0447L480.391 -90.449L463.945 -73.773L465.369 -72.3687ZM498.261 -105.721L514.707 -122.397L513.283 -123.801L496.837 -107.125L498.261 -105.721ZM531.153 -139.073L547.599 -155.749L546.175 -157.153L529.729 -140.477L531.153 -139.073ZM564.045 -172.425L580.491 -189.101L579.067 -190.505L562.621 -173.829L564.045 -172.425ZM596.937 -205.777L613.382 -222.453L611.958 -223.857L595.513 -207.181L596.937 -205.777ZM629.828 -239.129L638.051 -247.466L636.627 -248.871L628.404 -240.533L629.828 -239.129Z"
                  fill="#0066FF" mask="url(#)"/>
        </g>
        <g opacity="0.343061">
            <mask maskUnits="userSpaceOnUse" x="0" y="0" width="0" height="0" fill="black">
                <rect fill="white" width="0" height="0"/>
            </mask>
            <path d="M-252.057 662.307C-252.101 662.857 -251.691 663.339 -251.14 663.384L-242.169 664.106C-241.619 664.15 -241.136 663.74 -241.092 663.189C-241.048 662.639 -241.458 662.157 -242.009 662.112L-249.983 661.47L-249.341 653.496C-249.297 652.946 -249.707 652.464 -250.258 652.419C-250.808 652.375 -251.29 652.785 -251.335 653.336L-252.057 662.307ZM693.428 -140.451C693.472 -141.001 693.062 -141.483 692.511 -141.528L683.54 -142.25C682.99 -142.294 682.508 -141.884 682.463 -141.333C682.419 -140.783 682.829 -140.301 683.38 -140.256L691.354 -139.614L690.712 -131.64C690.668 -131.09 691.078 -130.607 691.629 -130.563C692.179 -130.519 692.661 -130.929 692.706 -131.48L693.428 -140.451ZM-250.412 663.149L-241.676 655.714L-242.972 654.191L-251.708 661.625L-250.412 663.149ZM-224.204 640.845L-206.732 625.976L-208.028 624.453L-225.5 639.322L-224.204 640.845ZM-189.26 611.108L-171.788 596.239L-173.084 594.716L-190.556 609.584L-189.26 611.108ZM-154.315 581.37L-136.843 566.501L-138.14 564.978L-155.612 579.847L-154.315 581.37ZM-119.371 551.632L-101.899 536.763L-103.196 535.24L-120.668 550.109L-119.371 551.632ZM-84.4273 521.894L-66.9552 507.026L-68.2514 505.502L-85.7234 520.371L-84.4273 521.894ZM-49.4831 492.157L-32.0111 477.288L-33.3073 475.765L-50.7793 490.634L-49.4831 492.157ZM-14.539 462.419L2.93304 447.55L1.63685 446.027L-15.8352 460.896L-14.539 462.419ZM20.4051 432.681L37.8772 417.812L36.581 416.289L19.1089 431.158L20.4051 432.681ZM55.3492 402.944L72.8213 388.075L71.5251 386.552L54.053 401.42L55.3492 402.944ZM90.2933 373.206L107.765 358.337L106.469 356.814L88.9972 371.683L90.2933 373.206ZM125.237 343.468L142.71 328.599L141.413 327.076L123.941 341.945L125.237 343.468ZM160.182 313.731L177.654 298.862L176.357 297.339L158.885 312.207L160.182 313.731ZM195.126 283.993L212.598 269.124L211.302 267.601L193.83 282.47L195.126 283.993ZM230.07 254.255L247.542 239.386L246.246 237.863L228.774 252.732L230.07 254.255ZM265.014 224.517L282.486 209.649L281.19 208.125L263.718 222.994L265.014 224.517ZM299.958 194.78L317.43 179.911L316.134 178.388L298.662 193.257L299.958 194.78ZM334.902 165.042L352.374 150.173L351.078 148.65L333.606 163.519L334.902 165.042ZM369.846 135.304L387.318 120.435L386.022 118.912L368.55 133.781L369.846 135.304ZM404.79 105.567L422.262 90.6977L420.966 89.1746L403.494 104.043L404.79 105.567ZM439.735 75.8288L457.207 60.96L455.91 59.4369L438.438 74.3057L439.735 75.8288ZM474.679 46.0911L492.151 31.2223L490.855 29.6992L473.382 44.568L474.679 46.0911ZM509.623 16.3534L527.095 1.48454L525.799 -0.0385784L508.327 14.8303L509.623 16.3534ZM544.567 -13.3843L562.039 -28.2531L560.743 -29.7762L543.271 -14.9074L544.567 -13.3843ZM579.511 -43.1219L596.983 -57.9907L595.687 -59.5138L578.215 -44.6451L579.511 -43.1219ZM614.455 -72.8596L631.927 -87.7284L630.631 -89.2515L613.159 -74.3827L614.455 -72.8596ZM649.399 -102.597L666.871 -117.466L665.575 -118.989L648.103 -104.12L649.399 -102.597ZM684.343 -132.335L693.079 -139.769L691.783 -141.293L683.047 -133.858L684.343 -132.335Z"
                  fill="#0066FF" mask="url(#)"/>
        </g>
        <g opacity="0.360816">
            <mask maskUnits="userSpaceOnUse" x="0" y="0" width="0" height="0" fill="black">
                <rect fill="white" width="0" height="0"/>
            </mask>
            <path d="M-252.37 672.285C-252.462 672.83 -252.095 673.346 -251.551 673.438L-242.677 674.939C-242.132 675.031 -241.616 674.664 -241.524 674.12C-241.432 673.575 -241.799 673.059 -242.343 672.967L-250.231 671.633L-248.897 663.745C-248.805 663.2 -249.171 662.684 -249.716 662.592C-250.26 662.5 -250.777 662.867 -250.869 663.411L-252.37 672.285ZM738.406 -30.0369C738.499 -30.5815 738.132 -31.0976 737.587 -31.1897L728.713 -32.6909C728.169 -32.783 727.653 -32.4163 727.561 -31.8717C727.468 -31.3272 727.835 -30.8111 728.38 -30.7189L736.268 -29.3845L734.933 -21.4966C734.841 -20.9521 735.208 -20.4359 735.752 -20.3438C736.297 -20.2517 736.813 -20.6184 736.905 -21.163L738.406 -30.0369ZM-250.805 673.267L-241.297 666.511L-242.455 664.88L-251.963 671.637L-250.805 673.267ZM-222.281 652.998L-203.266 639.486L-204.424 637.855L-223.44 651.368L-222.281 652.998ZM-184.25 625.973L-165.235 612.46L-166.394 610.83L-185.409 624.343L-184.25 625.973ZM-146.22 598.948L-127.204 585.435L-128.363 583.805L-147.378 597.317L-146.22 598.948ZM-108.189 571.923L-89.1731 558.41L-90.3316 556.78L-109.347 570.292L-108.189 571.923ZM-70.1577 544.897L-51.1422 531.385L-52.3007 529.754L-71.3162 543.267L-70.1577 544.897ZM-32.1267 517.872L-13.1113 504.359L-14.2698 502.729L-33.2852 516.242L-32.1267 517.872ZM5.90422 490.847L24.9197 477.334L23.7612 475.704L4.74571 489.217L5.90422 490.847ZM43.9352 463.822L62.9506 450.309L61.7921 448.679L42.7766 462.191L43.9352 463.822ZM81.9661 436.796L100.982 423.284L99.823 421.654L80.8076 435.166L81.9661 436.796ZM119.997 409.771L139.013 396.259L137.854 394.628L118.839 408.141L119.997 409.771ZM158.028 382.746L177.043 369.233L175.885 367.603L156.869 381.116L158.028 382.746ZM196.059 355.721L215.074 342.208L213.916 340.578L194.9 354.09L196.059 355.721ZM234.09 328.696L253.105 315.183L251.947 313.553L232.931 327.065L234.09 328.696ZM272.121 301.67L291.136 288.158L289.978 286.527L270.962 300.04L272.121 301.67ZM310.152 274.645L329.167 261.133L328.009 259.502L308.993 273.015L310.152 274.645ZM348.183 247.62L367.198 234.107L366.04 232.477L347.024 245.99L348.183 247.62ZM386.214 220.595L405.229 207.082L404.071 205.452L385.055 218.964L386.214 220.595ZM424.244 193.569L443.26 180.057L442.101 178.427L423.086 191.939L424.244 193.569ZM462.275 166.544L481.291 153.032L480.132 151.401L461.117 164.914L462.275 166.544ZM500.306 139.519L519.322 126.006L518.163 124.376L499.148 137.889L500.306 139.519ZM538.337 112.494L557.353 98.9812L556.194 97.3509L537.179 110.864L538.337 112.494ZM576.368 85.4686L595.384 71.956L594.225 70.3257L575.21 83.8383L576.368 85.4686ZM614.399 58.4434L633.415 44.9308L632.256 43.3005L613.241 56.8131L614.399 58.4434ZM652.43 31.4182L671.446 17.9056L670.287 16.2753L651.272 29.7879L652.43 31.4182ZM690.461 4.39296L709.477 -9.11966L708.318 -10.75L689.303 2.76267L690.461 4.39296ZM728.492 -22.6323L738 -29.3886L736.841 -31.0189L727.334 -24.2626L728.492 -22.6323Z"
                  fill="#0066FF" mask="url(#)"/>
        </g>
        <g opacity="0.378571">
            <mask maskUnits="userSpaceOnUse" x="0" y="0" width="0" height="0" fill="black">
                <rect fill="white" width="0" height="0"/>
            </mask>
            <path d="M-252.677 682.275C-252.816 682.81 -252.496 683.356 -251.961 683.495L-243.252 685.764C-242.717 685.903 -242.171 685.583 -242.032 685.048C-241.893 684.514 -242.213 683.968 -242.748 683.829L-250.489 681.812L-248.472 674.07C-248.333 673.536 -248.654 672.99 -249.188 672.85C-249.722 672.711 -250.269 673.032 -250.408 673.566L-252.677 682.275ZM773.241 82.0601C773.38 81.5256 773.059 80.9795 772.525 80.8403L763.816 78.5713C763.281 78.4321 762.735 78.7525 762.596 79.2869C762.457 79.8214 762.777 80.3675 763.311 80.5067L771.053 82.5236L769.036 90.2652C768.897 90.7996 769.217 91.3457 769.752 91.485C770.286 91.6242 770.832 91.3038 770.972 90.7694L773.241 82.0601ZM-251.203 683.39L-241.357 677.614L-242.369 675.889L-252.215 681.665L-251.203 683.39ZM-221.665 666.061L-201.973 654.509L-202.985 652.784L-222.677 664.336L-221.665 666.061ZM-182.281 642.957L-162.589 631.405L-163.601 629.679L-183.293 641.232L-182.281 642.957ZM-142.897 619.852L-123.205 608.3L-124.217 606.575L-143.909 618.127L-142.897 619.852ZM-103.513 596.748L-83.8214 585.195L-84.8334 583.47L-104.525 595.023L-103.513 596.748ZM-64.1294 573.643L-44.4374 562.091L-45.4494 560.366L-65.1414 571.918L-64.1294 573.643ZM-24.7455 550.538L-5.0535 538.986L-6.0655 537.261L-25.7575 548.813L-24.7455 550.538ZM14.6385 527.434L34.3304 515.882L33.3184 514.157L13.6265 525.709L14.6385 527.434ZM54.0224 504.329L73.7144 492.777L72.7024 491.052L53.0104 502.604L54.0224 504.329ZM93.4063 481.225L113.098 469.672L112.086 467.947L92.3943 479.5L93.4063 481.225ZM132.79 458.12L152.482 446.568L151.47 444.843L131.778 456.395L132.79 458.12ZM172.174 435.015L191.866 423.463L190.854 421.738L171.162 433.29L172.174 435.015ZM211.558 411.911L231.25 400.359L230.238 398.634L210.546 410.186L211.558 411.911ZM250.942 388.806L270.634 377.254L269.622 375.529L249.93 387.081L250.942 388.806ZM290.326 365.702L310.018 354.149L309.006 352.424L289.314 363.977L290.326 365.702ZM329.71 342.597L349.402 331.045L348.39 329.32L328.698 340.872L329.71 342.597ZM369.094 319.492L388.786 307.94L387.774 306.215L368.082 317.767L369.094 319.492ZM408.478 296.388L428.17 284.836L427.158 283.111L407.466 294.663L408.478 296.388ZM447.862 273.283L467.554 261.731L466.542 260.006L446.85 271.558L447.862 273.283ZM487.246 250.179L506.938 238.626L505.926 236.901L486.234 248.454L487.246 250.179ZM526.63 227.074L546.322 215.522L545.31 213.797L525.618 225.349L526.63 227.074ZM566.014 203.969L585.705 192.417L584.693 190.692L565.002 202.244L566.014 203.969ZM605.397 180.865L625.089 169.313L624.077 167.588L604.385 179.14L605.397 180.865ZM644.781 157.76L664.473 146.208L663.461 144.483L643.769 156.035L644.781 157.76ZM684.165 134.656L703.857 123.103L702.845 121.378L683.153 132.931L684.165 134.656ZM723.549 111.551L743.241 99.9988L742.229 98.2737L722.537 109.826L723.549 111.551ZM762.933 88.4465L772.779 82.6705L771.767 80.9454L761.921 86.7214L762.933 88.4465Z"
                  fill="#0066FF" mask="url(#)"/>
        </g>
        <g opacity="0.396327">
            <mask maskUnits="userSpaceOnUse" x="0" y="0" width="0" height="0" fill="black">
                <rect fill="white" width="0" height="0"/>
            </mask>
            <path d="M-252.98 692.278C-253.165 692.798 -252.893 693.37 -252.373 693.556L-243.895 696.575C-243.374 696.76 -242.802 696.489 -242.617 695.968C-242.432 695.448 -242.703 694.876 -243.224 694.691L-250.76 692.007L-248.076 684.471C-247.891 683.95 -248.162 683.378 -248.683 683.193C-249.203 683.008 -249.775 683.279 -249.96 683.8L-252.98 692.278ZM797.991 194.85C798.176 194.33 797.904 193.758 797.384 193.573L788.906 190.554C788.385 190.368 787.813 190.64 787.628 191.16C787.443 191.68 787.714 192.252 788.235 192.438L795.771 195.121L793.087 202.658C792.902 203.178 793.173 203.75 793.694 203.935C794.214 204.121 794.786 203.849 794.971 203.329L797.991 194.85ZM-251.609 693.517L-241.118 688.536L-241.976 686.729L-252.466 691.71L-251.609 693.517ZM-220.136 678.574L-199.154 668.612L-200.012 666.805L-220.994 676.767L-220.136 678.574ZM-178.173 658.65L-157.191 648.688L-158.049 646.881L-179.03 656.843L-178.173 658.65ZM-136.209 638.726L-115.227 628.764L-116.085 626.957L-137.067 636.919L-136.209 638.726ZM-94.2457 618.802L-73.264 608.84L-74.1218 607.033L-95.1035 616.995L-94.2457 618.802ZM-52.2823 598.878L-31.3006 588.916L-32.1584 587.109L-53.1401 597.071L-52.2823 598.878ZM-10.3188 578.954L10.6629 568.992L9.80507 567.185L-11.1766 577.147L-10.3188 578.954ZM31.6446 559.03L52.6263 549.068L51.7685 547.262L30.7868 557.224L31.6446 559.03ZM73.608 539.106L94.5897 529.144L93.7319 527.338L72.7502 537.3L73.608 539.106ZM115.571 519.182L136.553 509.22L135.695 507.414L114.714 517.376L115.571 519.182ZM157.535 499.258L178.517 489.296L177.659 487.49L156.677 497.452L157.535 499.258ZM199.498 479.334L220.48 469.372L219.622 467.566L198.64 477.528L199.498 479.334ZM241.462 459.411L262.443 449.449L261.586 447.642L240.604 457.604L241.462 459.411ZM283.425 439.487L304.407 429.525L303.549 427.718L282.567 437.68L283.425 439.487ZM325.389 419.563L346.37 409.601L345.513 407.794L324.531 417.756L325.389 419.563ZM367.352 399.639L388.334 389.677L387.476 387.87L366.494 397.832L367.352 399.639ZM409.315 379.715L430.297 369.753L429.439 367.946L408.458 377.908L409.315 379.715ZM451.279 359.791L472.261 349.829L471.403 348.022L450.421 357.984L451.279 359.791ZM493.242 339.867L514.224 329.905L513.366 328.098L492.385 338.06L493.242 339.867ZM535.206 319.943L556.187 309.981L555.33 308.174L534.348 318.136L535.206 319.943ZM577.169 300.019L598.151 290.057L597.293 288.25L576.311 298.212L577.169 300.019ZM619.133 280.095L640.114 270.133L639.256 268.326L618.275 278.288L619.133 280.095ZM661.096 260.171L682.078 250.209L681.22 248.402L660.238 258.364L661.096 260.171ZM703.06 240.247L724.041 230.285L723.183 228.479L702.202 238.441L703.06 240.247ZM745.023 220.323L766.005 210.361L765.147 208.555L744.165 218.517L745.023 220.323ZM786.986 200.399L797.477 195.418L796.62 193.612L786.129 198.593L786.986 200.399Z"
                  fill="#0066FF" mask="url(#)"/>
        </g>
        <g opacity="0.414082">
            <mask maskUnits="userSpaceOnUse" x="0" y="0" width="0" height="0" fill="black">
                <rect fill="white" width="0" height="0"/>
            </mask>
            <path d="M-253.279 702.293C-253.509 702.795 -253.288 703.389 -252.786 703.619L-244.603 707.366C-244.101 707.596 -243.507 707.375 -243.277 706.873C-243.047 706.371 -243.268 705.777 -243.77 705.547L-251.044 702.217L-247.714 694.943C-247.484 694.441 -247.704 693.847 -248.206 693.617C-248.709 693.387 -249.302 693.608 -249.532 694.11L-253.279 702.293ZM812.813 307.368C813.043 306.866 812.822 306.272 812.32 306.042L804.137 302.296C803.635 302.066 803.041 302.286 802.811 302.788C802.581 303.291 802.802 303.884 803.304 304.114L810.578 307.445L807.247 314.718C807.017 315.22 807.238 315.814 807.74 316.044C808.242 316.274 808.836 316.053 809.066 315.551L812.813 307.368ZM-252.021 703.647L-241.378 699.689L-242.075 697.815L-252.718 701.772L-252.021 703.647ZM-220.093 691.774L-198.807 683.859L-199.505 681.984L-220.79 689.9L-220.093 691.774ZM-177.522 675.944L-156.237 668.029L-156.934 666.154L-178.219 674.069L-177.522 675.944ZM-134.951 660.114L-113.666 652.198L-114.363 650.324L-135.648 658.239L-134.951 660.114ZM-92.3801 644.283L-71.0947 636.368L-71.7917 634.493L-93.0772 642.409L-92.3801 644.283ZM-49.8092 628.453L-28.5237 620.538L-29.2208 618.663L-50.5063 626.578L-49.8092 628.453ZM-7.23828 612.623L14.0472 604.707L13.3501 602.833L-7.93536 610.748L-7.23828 612.623ZM35.3326 596.792L56.6181 588.877L55.921 587.002L34.6355 594.918L35.3326 596.792ZM77.9035 580.962L99.189 573.047L98.4919 571.172L77.2064 579.087L77.9035 580.962ZM120.474 565.132L141.76 557.216L141.063 555.342L119.777 563.257L120.474 565.132ZM163.045 549.301L184.331 541.386L183.634 539.512L162.348 547.427L163.045 549.301ZM205.616 533.471L226.902 525.556L226.205 523.681L204.919 531.596L205.616 533.471ZM248.187 517.641L269.473 509.726L268.776 507.851L247.49 515.766L248.187 517.641ZM290.758 501.81L312.043 493.895L311.346 492.021L290.061 499.936L290.758 501.81ZM333.329 485.98L354.614 478.065L353.917 476.19L332.632 484.105L333.329 485.98ZM375.9 470.15L397.185 462.235L396.488 460.36L375.203 468.275L375.9 470.15ZM418.471 454.319L439.756 446.404L439.059 444.53L417.774 452.445L418.471 454.319ZM461.042 438.489L482.327 430.574L481.63 428.699L460.345 436.615L461.042 438.489ZM503.613 422.659L524.898 414.744L524.201 412.869L502.915 420.784L503.613 422.659ZM546.183 406.828L567.469 398.913L566.772 397.039L545.486 404.954L546.183 406.828ZM588.754 390.998L610.04 383.083L609.343 381.208L588.057 389.124L588.754 390.998ZM631.325 375.168L652.611 367.253L651.914 365.378L630.628 373.293L631.325 375.168ZM673.896 359.338L695.182 351.422L694.485 349.548L673.199 357.463L673.896 359.338ZM716.467 343.507L737.753 335.592L737.055 333.717L715.77 341.633L716.467 343.507ZM759.038 327.677L780.323 319.762L779.626 317.887L758.341 325.802L759.038 327.677ZM801.609 311.847L812.252 307.889L811.555 306.014L800.912 309.972L801.609 311.847Z"
                  fill="#0066FF" mask="url(#)"/>
        </g>
        <g opacity="0.431837">
            <mask maskUnits="userSpaceOnUse" x="0" y="0" width="0" height="0" fill="black">
                <rect fill="white" width="0" height="0"/>
            </mask>
            <path d="M-253.575 712.321C-253.848 712.802 -253.68 713.412 -253.2 713.685L-245.375 718.131C-244.894 718.403 -244.284 718.235 -244.011 717.755C-243.738 717.275 -243.906 716.664 -244.387 716.392L-251.343 712.44L-247.391 705.484C-247.118 705.004 -247.286 704.393 -247.766 704.121C-248.246 703.848 -248.857 704.016 -249.13 704.496L-253.575 712.321ZM817.953 418.68C818.226 418.2 818.058 417.589 817.577 417.316L809.752 412.871C809.272 412.598 808.661 412.766 808.389 413.246C808.116 413.726 808.284 414.337 808.764 414.61L815.72 418.561L811.768 425.517C811.495 425.997 811.663 426.608 812.144 426.881C812.624 427.153 813.234 426.985 813.507 426.505L817.953 418.68ZM-252.44 713.779L-241.297 710.71L-241.828 708.782L-252.971 711.851L-252.44 713.779ZM-219.01 704.572L-196.722 698.434L-197.253 696.506L-219.541 702.644L-219.01 704.572ZM-174.435 692.296L-152.148 686.158L-152.679 684.23L-174.966 690.368L-174.435 692.296ZM-129.86 680.02L-107.573 673.882L-108.104 671.954L-130.391 678.092L-129.86 680.02ZM-85.2859 667.744L-62.9986 661.605L-63.5296 659.677L-85.8169 665.815L-85.2859 667.744ZM-40.7113 655.467L-18.424 649.329L-18.9551 647.401L-41.2423 653.539L-40.7113 655.467ZM3.86326 643.191L26.1505 637.053L25.6195 635.125L3.33222 641.263L3.86326 643.191ZM48.4378 630.915L70.7251 624.777L70.194 622.849L47.9068 628.987L48.4378 630.915ZM93.0123 618.639L115.3 612.501L114.769 610.572L92.4813 616.71L93.0123 618.639ZM137.587 606.362L159.874 600.224L159.343 598.296L137.056 604.434L137.587 606.362ZM182.161 594.086L204.449 587.948L203.918 586.02L181.63 592.158L182.161 594.086ZM226.736 581.81L249.023 575.672L248.492 573.744L226.205 579.882L226.736 581.81ZM271.31 569.534L293.598 563.396L293.067 561.467L270.779 567.606L271.31 569.534ZM315.885 557.258L338.172 551.119L337.641 549.191L315.354 555.329L315.885 557.258ZM360.46 544.981L382.747 538.843L382.216 536.915L359.928 543.053L360.46 544.981ZM405.034 532.705L427.321 526.567L426.79 524.639L404.503 530.777L405.034 532.705ZM449.609 520.429L471.896 514.291L471.365 512.363L449.078 518.501L449.609 520.429ZM494.183 508.153L516.47 502.015L515.939 500.086L493.652 506.224L494.183 508.153ZM538.758 495.876L561.045 489.738L560.514 487.81L538.227 493.948L538.758 495.876ZM583.332 483.6L605.619 477.462L605.088 475.534L582.801 481.672L583.332 483.6ZM627.907 471.324L650.194 465.186L649.663 463.258L627.376 469.396L627.907 471.324ZM672.481 459.048L694.769 452.91L694.238 450.981L671.95 457.12L672.481 459.048ZM717.056 446.772L739.343 440.633L738.812 438.705L716.525 444.843L717.056 446.772ZM761.63 434.495L783.918 428.357L783.387 426.429L761.099 432.567L761.63 434.495ZM806.205 422.219L817.349 419.15L816.818 417.222L805.674 420.291L806.205 422.219Z"
                  fill="#0066FF" mask="url(#)"/>
        </g>
        <g opacity="0.449592">
            <mask maskUnits="userSpaceOnUse" x="0" y="0" width="0" height="0" fill="black">
                <rect fill="white" width="0" height="0"/>
            </mask>
            <path d="M-253.871 722.363C-254.185 722.817 -254.07 723.44 -253.616 723.754L-246.208 728.865C-245.753 729.178 -245.13 729.064 -244.817 728.609C-244.503 728.155 -244.617 727.532 -245.072 727.219L-251.657 722.676L-247.114 716.091C-246.8 715.636 -246.915 715.013 -247.369 714.7C-247.824 714.386 -248.447 714.5 -248.76 714.955L-253.871 722.363ZM813.742 527.895C814.056 527.44 813.942 526.817 813.487 526.504L806.079 521.393C805.625 521.079 805.002 521.194 804.688 521.648C804.375 522.103 804.489 522.726 804.943 523.039L811.528 527.582L806.985 534.167C806.672 534.622 806.786 535.245 807.241 535.558C807.695 535.872 808.318 535.757 808.632 535.303L813.742 527.895ZM-252.867 723.914L-241.764 721.877L-242.125 719.91L-253.228 721.947L-252.867 723.914ZM-219.556 717.802L-197.348 713.727L-197.709 711.759L-219.917 715.835L-219.556 717.802ZM-175.141 709.652L-152.933 705.576L-153.294 703.609L-175.502 707.684L-175.141 709.652ZM-130.725 701.501L-108.518 697.426L-108.879 695.459L-131.086 699.534L-130.725 701.501ZM-86.31 693.351L-64.1023 689.276L-64.4633 687.309L-86.671 691.384L-86.31 693.351ZM-41.8947 685.201L-19.687 681.126L-20.048 679.159L-42.2557 683.234L-41.8947 685.201ZM2.52061 677.051L24.7282 672.976L24.3673 671.009L2.15964 675.084L2.52061 677.051ZM46.9359 668.901L69.1435 664.826L68.7826 662.859L46.5749 666.934L46.9359 668.901ZM91.3512 660.751L113.559 656.676L113.198 654.708L90.9902 658.783L91.3512 660.751ZM135.766 652.6L157.974 648.525L157.613 646.558L135.405 650.633L135.766 652.6ZM180.182 644.45L202.389 640.375L202.028 638.408L179.821 642.483L180.182 644.45ZM224.597 636.3L246.805 632.225L246.444 630.258L224.236 634.333L224.597 636.3ZM269.012 628.15L291.22 624.075L290.859 622.108L268.651 626.183L269.012 628.15ZM313.428 620L335.635 615.925L335.274 613.958L313.067 618.033L313.428 620ZM357.843 611.85L380.051 607.775L379.69 605.807L357.482 609.883L357.843 611.85ZM402.258 603.7L424.466 599.624L424.105 597.657L401.897 601.732L402.258 603.7ZM446.673 595.549L468.881 591.474L468.52 589.507L446.312 593.582L446.673 595.549ZM491.089 587.399L513.296 583.324L512.935 581.357L490.728 585.432L491.089 587.399ZM535.504 579.249L557.712 575.174L557.351 573.207L535.143 577.282L535.504 579.249ZM579.919 571.099L602.127 567.024L601.766 565.057L579.558 569.132L579.919 571.099ZM624.335 562.949L646.542 558.874L646.181 556.907L623.974 560.982L624.335 562.949ZM668.75 554.799L690.957 550.724L690.596 548.756L668.389 552.831L668.75 554.799ZM713.165 546.648L735.373 542.573L735.012 540.606L712.804 544.681L713.165 546.648ZM757.58 538.498L779.788 534.423L779.427 532.456L757.219 536.531L757.58 538.498ZM801.996 530.348L813.1 528.311L812.739 526.343L801.635 528.381L801.996 530.348Z"
                  fill="#0066FF" mask="url(#)"/>
        </g>
        <g opacity="0.467347">
            <mask maskUnits="userSpaceOnUse" x="0" y="0" width="0" height="0" fill="black">
                <rect fill="white" width="0" height="0"/>
            </mask>
            <path d="M-254.166 732.417C-254.518 732.843 -254.458 733.473 -254.033 733.825L-247.098 739.562C-246.673 739.914 -246.042 739.855 -245.69 739.429C-245.338 739.004 -245.398 738.373 -245.823 738.021L-251.987 732.922L-246.888 726.758C-246.536 726.332 -246.595 725.702 -247.021 725.35C-247.446 724.998 -248.077 725.057 -248.429 725.483L-254.166 732.417ZM800.594 634.17C800.947 633.745 800.887 633.114 800.461 632.762L793.527 627.025C793.101 626.673 792.471 626.733 792.119 627.158C791.767 627.584 791.827 628.214 792.252 628.566L798.416 633.666L793.316 639.83C792.964 640.255 793.024 640.886 793.449 641.238C793.875 641.59 794.505 641.53 794.857 641.105L800.594 634.17ZM-253.301 734.05L-241.853 732.969L-242.041 730.977L-253.489 732.059L-253.301 734.05ZM-218.957 730.805L-196.061 728.642L-196.249 726.65L-219.145 728.814L-218.957 730.805ZM-173.165 726.478L-150.269 724.314L-150.457 722.323L-173.353 724.487L-173.165 726.478ZM-127.373 722.151L-104.477 719.987L-104.665 717.996L-127.561 720.16L-127.373 722.151ZM-81.5807 717.824L-58.6846 715.66L-58.8728 713.669L-81.7688 715.833L-81.5807 717.824ZM-35.7885 713.497L-12.8925 711.333L-13.0806 709.342L-35.9767 711.506L-35.7885 713.497ZM10.0036 709.17L32.8997 707.006L32.7115 705.015L9.81547 707.179L10.0036 709.17ZM55.7957 704.843L78.6918 702.679L78.5036 700.688L55.6076 702.852L55.7957 704.843ZM101.588 700.516L124.484 698.352L124.296 696.361L101.4 698.525L101.588 700.516ZM147.38 696.189L170.276 694.025L170.088 692.034L147.192 694.198L147.38 696.189ZM193.172 691.862L216.068 689.698L215.88 687.707L192.984 689.871L193.172 691.862ZM238.964 687.535L261.86 685.371L261.672 683.38L238.776 685.543L238.964 687.535ZM284.756 683.208L307.652 681.044L307.464 679.053L284.568 681.216L284.756 683.208ZM330.548 678.881L353.444 676.717L353.256 674.726L330.36 676.889L330.548 678.881ZM376.34 674.553L399.237 672.39L399.048 670.399L376.152 672.562L376.34 674.553ZM422.133 670.226L445.029 668.063L444.841 666.072L421.944 668.235L422.133 670.226ZM467.925 665.899L490.821 663.736L490.633 661.745L467.737 663.908L467.925 665.899ZM513.717 661.572L536.613 659.409L536.425 657.418L513.529 659.581L513.717 661.572ZM559.509 657.245L582.405 655.082L582.217 653.091L559.321 655.254L559.509 657.245ZM605.301 652.918L628.197 650.755L628.009 648.764L605.113 650.927L605.301 652.918ZM651.093 648.591L673.989 646.428L673.801 644.437L650.905 646.6L651.093 648.591ZM696.885 644.264L719.781 642.101L719.593 640.11L696.697 642.273L696.885 644.264ZM742.677 639.937L765.573 637.774L765.385 635.782L742.489 637.946L742.677 639.937ZM788.47 635.61L799.918 634.528L799.73 632.537L788.281 633.619L788.47 635.61Z"
                  fill="#0066FF" mask="url(#)"/>
        </g>
        <g opacity="0.485102">
            <mask maskUnits="userSpaceOnUse" x="0" y="0" width="0" height="0" fill="black">
                <rect fill="white" width="0" height="0"/>
            </mask>
            <path d="M-254.462 742.485C-254.849 742.878 -254.845 743.511 -254.452 743.899L-248.044 750.219C-247.65 750.607 -247.017 750.602 -246.63 750.209C-246.242 749.816 -246.246 749.183 -246.639 748.795L-252.335 743.177L-246.718 737.481C-246.33 737.088 -246.335 736.455 -246.728 736.067C-247.121 735.679 -247.754 735.684 -248.142 736.077L-254.462 742.485ZM778.994 736.72C779.382 736.326 779.378 735.693 778.985 735.306L772.576 728.986C772.183 728.598 771.55 728.603 771.162 728.996C770.775 729.389 770.779 730.022 771.172 730.41L776.868 736.027L771.251 741.723C770.863 742.117 770.867 742.75 771.261 743.138C771.654 743.525 772.287 743.521 772.675 743.128L778.994 736.72ZM-253.743 744.187L-242.015 744.106L-242.029 742.106L-253.756 742.187L-253.743 744.187ZM-218.56 743.943L-195.104 743.78L-195.118 741.78L-218.574 741.943L-218.56 743.943ZM-171.649 743.617L-148.194 743.454L-148.208 741.454L-171.663 741.617L-171.649 743.617ZM-124.739 743.291L-101.283 743.128L-101.297 741.128L-124.752 741.291L-124.739 743.291ZM-77.828 742.965L-54.3728 742.802L-54.3867 740.802L-77.8419 740.965L-77.828 742.965ZM-30.9175 742.639L-7.46222 742.476L-7.47612 740.476L-30.9314 740.639L-30.9175 742.639ZM15.993 742.313L39.4483 742.15L39.4344 740.15L15.9791 740.313L15.993 742.313ZM62.9036 741.987L86.3589 741.824L86.345 739.824L62.8897 739.987L62.9036 741.987ZM109.814 741.661L133.269 741.499L133.256 739.499L109.8 739.662L109.814 741.661ZM156.725 741.336L180.18 741.173L180.166 739.173L156.711 739.336L156.725 741.336ZM203.635 741.01L227.091 740.847L227.077 738.847L203.621 739.01L203.635 741.01ZM250.546 740.684L274.001 740.521L273.987 738.521L250.532 738.684L250.546 740.684ZM297.456 740.358L320.912 740.195L320.898 738.195L297.442 738.358L297.456 740.358ZM344.367 740.032L367.822 739.869L367.808 737.869L344.353 738.032L344.367 740.032ZM391.277 739.706L414.733 739.543L414.719 737.543L391.263 737.706L391.277 739.706ZM438.188 739.38L461.643 739.217L461.629 737.217L438.174 737.38L438.188 739.38ZM485.098 739.054L508.554 738.891L508.54 736.891L485.084 737.054L485.098 739.054ZM532.009 738.728L555.464 738.565L555.45 736.566L531.995 736.728L532.009 738.728ZM578.919 738.403L602.374 738.24L602.361 736.24L578.905 736.403L578.919 738.403ZM625.83 738.077L649.285 737.914L649.271 735.914L625.816 736.077L625.83 738.077ZM672.74 737.751L696.195 737.588L696.182 735.588L672.726 735.751L672.74 737.751ZM719.651 737.425L743.106 737.262L743.092 735.262L719.637 735.425L719.651 737.425ZM766.561 737.099L778.289 737.018L778.275 735.018L766.547 735.099L766.561 737.099Z"
                  fill="#0066FF" mask="url(#)"/>
        </g>
        <g opacity="0.502857">
            <mask maskUnits="userSpaceOnUse" x="0" y="0" width="0" height="0" fill="black">
                <rect fill="white" width="0" height="0"/>
            </mask>
            <path d="M-254.76 752.566C-255.181 752.923 -255.231 753.555 -254.874 753.975L-249.041 760.829C-248.683 761.25 -248.052 761.301 -247.631 760.943C-247.21 760.585 -247.16 759.954 -247.518 759.533L-252.702 753.441L-246.61 748.256C-246.189 747.898 -246.138 747.267 -246.496 746.846C-246.854 746.426 -247.485 746.375 -247.906 746.733L-254.76 752.566ZM749.495 834.819C749.915 834.462 749.966 833.83 749.608 833.41L743.775 826.556C743.417 826.135 742.786 826.084 742.366 826.442C741.945 826.8 741.894 827.431 742.252 827.852L747.437 833.944L741.344 839.129C740.924 839.487 740.873 840.118 741.231 840.539C741.589 840.959 742.22 841.01 742.641 840.652L749.495 834.819ZM-254.192 754.324L-242.795 755.241L-242.634 753.248L-254.032 752.33L-254.192 754.324ZM-220 757.076L-197.206 758.911L-197.045 756.917L-219.84 755.083L-220 757.076ZM-174.411 760.746L-151.617 762.58L-151.456 760.587L-174.251 758.752L-174.411 760.746ZM-128.822 764.415L-106.028 766.25L-105.867 764.256L-128.662 762.422L-128.822 764.415ZM-83.2334 768.085L-60.4388 769.92L-60.2784 767.926L-83.0729 766.091L-83.2334 768.085ZM-37.6443 771.754L-14.8498 773.589L-14.6893 771.596L-37.4839 769.761L-37.6443 771.754ZM7.9447 775.424L30.7392 777.259L30.8996 775.265L8.10516 773.43L7.9447 775.424ZM53.5337 779.094L76.3282 780.928L76.4887 778.935L53.6942 777.1L53.5337 779.094ZM99.1227 782.763L121.917 784.598L122.078 782.604L99.2831 780.77L99.1227 782.763ZM144.712 786.433L167.506 788.267L167.667 786.274L144.872 784.439L144.712 786.433ZM190.301 790.102L213.095 791.937L213.256 789.944L190.461 788.109L190.301 790.102ZM235.89 793.772L258.684 795.607L258.845 793.613L236.05 791.778L235.89 793.772ZM281.479 797.441L304.273 799.276L304.434 797.283L281.639 795.448L281.479 797.441ZM327.068 801.111L349.862 802.946L350.023 800.952L327.228 799.117L327.068 801.111ZM372.657 804.781L395.451 806.615L395.612 804.622L372.817 802.787L372.657 804.781ZM418.246 808.45L441.04 810.285L441.201 808.291L418.406 806.457L418.246 808.45ZM463.835 812.12L486.629 813.955L486.79 811.961L463.995 810.126L463.835 812.12ZM509.424 815.789L532.218 817.624L532.379 815.631L509.584 813.796L509.424 815.789ZM555.013 819.459L577.807 821.294L577.968 819.3L555.173 817.465L555.013 819.459ZM600.602 823.129L623.396 824.963L623.557 822.97L600.762 821.135L600.602 823.129ZM646.191 826.798L668.985 828.633L669.146 826.639L646.351 824.805L646.191 826.798ZM691.78 830.468L714.574 832.302L714.735 830.309L691.94 828.474L691.78 830.468ZM737.369 834.137L748.766 835.055L748.927 833.061L737.529 832.144L737.369 834.137Z"
                  fill="#0066FF" mask="url(#)"/>
        </g>
        <g opacity="0.520612">
            <mask maskUnits="userSpaceOnUse" x="0" y="0" width="0" height="0" fill="black">
                <rect fill="white" width="0" height="0"/>
            </mask>
            <path d="M-255.062 762.659C-255.512 762.979 -255.617 763.603 -255.297 764.053L-250.084 771.39C-249.764 771.84 -249.14 771.946 -248.69 771.626C-248.24 771.306 -248.134 770.681 -248.454 770.231L-253.088 763.71L-246.567 759.076C-246.117 758.756 -246.011 758.132 -246.331 757.682C-246.651 757.231 -247.275 757.126 -247.725 757.446L-255.062 762.659ZM712.71 927.814C713.161 927.494 713.266 926.87 712.946 926.419L707.733 919.083C707.413 918.633 706.789 918.527 706.339 918.847C705.889 919.167 705.783 919.791 706.103 920.242L710.737 926.763L704.216 931.397C703.765 931.717 703.66 932.341 703.98 932.791C704.3 933.241 704.924 933.347 705.374 933.027L712.71 927.814ZM-254.649 764.46L-243.142 766.407L-242.808 764.435L-254.316 762.488L-254.649 764.46ZM-220.127 770.3L-197.113 774.194L-196.779 772.222L-219.794 768.328L-220.127 770.3ZM-174.098 778.087L-151.083 781.981L-150.75 780.009L-173.764 776.115L-174.098 778.087ZM-128.069 785.874L-105.054 789.768L-104.721 787.796L-127.735 783.902L-128.069 785.874ZM-82.0396 793.661L-59.025 797.554L-58.6914 795.582L-81.706 791.689L-82.0396 793.661ZM-36.0104 801.448L-12.9958 805.341L-12.6622 803.369L-35.6768 799.476L-36.0104 801.448ZM10.0189 809.235L33.0335 813.128L33.3671 811.156L10.3525 807.263L10.0189 809.235ZM56.0481 817.022L79.0627 820.915L79.3963 818.943L56.3817 815.05L56.0481 817.022ZM102.077 824.809L125.092 828.702L125.425 826.73L102.411 822.837L102.077 824.809ZM148.107 832.595L171.121 836.489L171.455 834.517L148.44 830.623L148.107 832.595ZM194.136 840.382L217.15 844.276L217.484 842.304L194.469 838.41L194.136 840.382ZM240.165 848.169L263.18 852.063L263.513 850.091L240.499 846.197L240.165 848.169ZM286.194 855.956L309.209 859.849L309.542 857.877L286.528 853.984L286.194 855.956ZM332.223 863.743L355.238 867.636L355.572 865.664L332.557 861.771L332.223 863.743ZM378.253 871.53L401.267 875.423L401.601 873.451L378.586 869.558L378.253 871.53ZM424.282 879.317L447.296 883.21L447.63 881.238L424.615 877.345L424.282 879.317ZM470.311 887.104L493.326 890.997L493.659 889.025L470.645 885.132L470.311 887.104ZM516.34 894.89L539.355 898.784L539.688 896.812L516.674 892.918L516.34 894.89ZM562.369 902.677L585.384 906.571L585.718 904.599L562.703 900.705L562.369 902.677ZM608.399 910.464L631.413 914.358L631.747 912.386L608.732 908.492L608.399 910.464ZM654.428 918.251L677.442 922.145L677.776 920.173L654.761 916.279L654.428 918.251ZM700.457 926.038L711.964 927.985L712.298 926.013L700.791 924.066L700.457 926.038Z"
                  fill="#0066FF" mask="url(#)"/>
        </g>
        <g opacity="0.538367">
            <mask maskUnits="userSpaceOnUse" x="0" y="0" width="0" height="0" fill="black">
                <rect fill="white" width="0" height="0"/>
            </mask>
            <path d="M-255.368 772.765C-255.844 773.044 -256.004 773.657 -255.724 774.133L-251.17 781.896C-250.891 782.373 -250.278 782.532 -249.802 782.253C-249.325 781.973 -249.166 781.361 -249.445 780.884L-253.493 773.984L-246.593 769.936C-246.117 769.656 -245.957 769.044 -246.236 768.567C-246.516 768.091 -247.129 767.931 -247.605 768.211L-255.368 772.765ZM669.308 1015.12C669.785 1014.84 669.944 1014.23 669.665 1013.75L665.111 1005.99C664.831 1005.51 664.219 1005.35 663.742 1005.63C663.266 1005.91 663.106 1006.52 663.386 1007L667.434 1013.9L660.533 1017.95C660.057 1018.23 659.897 1018.84 660.177 1019.32C660.456 1019.79 661.069 1019.95 661.545 1019.67L669.308 1015.12ZM-255.114 774.595L-244.118 777.46L-243.614 775.524L-254.61 772.66L-255.114 774.595ZM-222.126 783.189L-200.134 788.918L-199.63 786.983L-221.622 781.254L-222.126 783.189ZM-178.142 794.648L-156.15 800.377L-155.646 798.442L-177.638 792.712L-178.142 794.648ZM-134.158 806.106L-112.166 811.836L-111.662 809.9L-133.654 804.171L-134.158 806.106ZM-90.1738 817.565L-68.1818 823.294L-67.6776 821.359L-89.6696 815.629L-90.1738 817.565ZM-46.1898 829.023L-24.1978 834.753L-23.6936 832.817L-45.6856 827.088L-46.1898 829.023ZM-2.20583 840.482L19.7862 846.211L20.2904 844.276L-1.70162 838.547L-2.20583 840.482ZM41.7782 851.941L63.7702 857.67L64.2744 855.735L42.2824 850.005L41.7782 851.941ZM85.7622 863.399L107.754 869.128L108.258 867.193L86.2664 861.464L85.7622 863.399ZM129.746 874.858L151.738 880.587L152.242 878.652L130.25 872.922L129.746 874.858ZM173.73 886.316L195.722 892.046L196.226 890.11L174.234 884.381L173.73 886.316ZM217.714 897.775L239.706 903.504L240.21 901.569L218.218 895.84L217.714 897.775ZM261.698 909.234L283.69 914.963L284.194 913.027L262.202 907.298L261.698 909.234ZM305.682 920.692L327.674 926.421L328.178 924.486L306.186 918.757L305.682 920.692ZM349.666 932.151L371.658 937.88L372.162 935.945L350.17 930.215L349.666 932.151ZM393.65 943.609L415.642 949.339L416.146 947.403L394.154 941.674L393.65 943.609ZM437.634 955.068L459.626 960.797L460.13 958.862L438.138 953.132L437.634 955.068ZM481.618 966.526L503.61 972.256L504.114 970.32L482.122 964.591L481.618 966.526ZM525.602 977.985L547.594 983.714L548.098 981.779L526.106 976.05L525.602 977.985ZM569.586 989.444L591.578 995.173L592.082 993.237L570.09 987.508L569.586 989.444ZM613.57 1000.9L635.562 1006.63L636.066 1004.7L614.074 998.967L613.57 1000.9ZM657.554 1012.36L668.55 1015.23L669.054 1013.29L658.058 1010.43L657.554 1012.36Z"
                  fill="#0066FF" mask="url(#)"/>
        </g>
        <g opacity="0.556122">
            <mask maskUnits="userSpaceOnUse" x="0" y="0" width="0" height="0" fill="black">
                <rect fill="white" width="0" height="0"/>
            </mask>
            <path d="M-255.679 782.883C-256.178 783.12 -256.39 783.716 -256.154 784.215L-252.293 792.345C-252.057 792.844 -251.46 793.056 -250.961 792.82C-250.462 792.583 -250.25 791.986 -250.487 791.487L-253.918 784.261L-246.691 780.829C-246.192 780.592 -245.98 779.996 -246.217 779.497C-246.454 778.998 -247.05 778.786 -247.549 779.023L-255.679 782.883ZM620 1096.23C620.498 1096 620.711 1095.4 620.474 1094.9L616.614 1086.77C616.377 1086.27 615.78 1086.06 615.282 1086.3C614.783 1086.53 614.57 1087.13 614.807 1087.63L618.238 1094.86L611.012 1098.29C610.513 1098.52 610.3 1099.12 610.537 1099.62C610.774 1100.12 611.37 1100.33 611.869 1100.09L620 1096.23ZM-255.586 784.728L-244.65 788.622L-243.979 786.738L-254.915 782.844L-255.586 784.728ZM-222.78 796.411L-200.909 804.2L-200.238 802.315L-222.109 794.527L-222.78 796.411ZM-179.039 811.988L-157.168 819.777L-156.497 817.893L-178.368 810.104L-179.039 811.988ZM-135.298 827.565L-113.427 835.354L-112.756 833.47L-134.627 825.681L-135.298 827.565ZM-91.5568 843.143L-69.6863 850.931L-69.0153 849.047L-90.8858 841.258L-91.5568 843.143ZM-47.8158 858.72L-25.9452 866.508L-25.2743 864.624L-47.1448 856.836L-47.8158 858.72ZM-4.07472 874.297L17.7958 882.085L18.4668 880.201L-3.40375 872.413L-4.07472 874.297ZM39.6663 889.874L61.5368 897.663L62.2078 895.779L40.3373 887.99L39.6663 889.874ZM83.4073 905.451L105.278 913.24L105.949 911.356L84.0783 903.567L83.4073 905.451ZM127.148 921.028L149.019 928.817L149.69 926.933L127.819 919.144L127.148 921.028ZM170.889 936.606L192.76 944.394L193.431 942.51L171.56 934.721L170.889 936.606ZM214.63 952.183L236.501 959.971L237.172 958.087L215.301 950.299L214.63 952.183ZM258.371 967.76L280.242 975.548L280.913 973.664L259.042 965.876L258.371 967.76ZM302.113 983.337L323.983 991.126L324.654 989.242L302.783 981.453L302.113 983.337ZM345.854 998.914L367.724 1006.7L368.395 1004.82L346.525 997.03L345.854 998.914ZM389.595 1014.49L411.465 1022.28L412.136 1020.4L390.266 1012.61L389.595 1014.49ZM433.336 1030.07L455.206 1037.86L455.877 1035.97L434.007 1028.18L433.336 1030.07ZM477.077 1045.65L498.947 1053.43L499.618 1051.55L477.748 1043.76L477.077 1045.65ZM520.818 1061.22L542.688 1069.01L543.359 1067.13L521.489 1059.34L520.818 1061.22ZM564.559 1076.8L586.43 1084.59L587.101 1082.7L565.23 1074.92L564.559 1076.8ZM608.3 1092.38L619.235 1096.27L619.906 1094.39L608.971 1090.49L608.3 1092.38Z"
                  fill="#0066FF" mask="url(#)"/>
        </g>
        <g opacity="0.573878">
            <mask maskUnits="userSpaceOnUse" x="0" y="0" width="0" height="0" fill="black">
                <rect fill="white" width="0" height="0"/>
            </mask>
            <path d="M-255.997 793.012C-256.514 793.205 -256.778 793.78 -256.586 794.298L-253.449 802.734C-253.256 803.251 -252.68 803.515 -252.163 803.322C-251.645 803.13 -251.382 802.554 -251.574 802.037L-254.362 794.538L-246.864 791.75C-246.346 791.557 -246.083 790.982 -246.275 790.464C-246.468 789.946 -247.043 789.683 -247.561 789.875L-255.997 793.012ZM565.532 1170.73C566.05 1170.53 566.313 1169.96 566.121 1169.44L562.984 1161.01C562.791 1160.49 562.216 1160.22 561.698 1160.42C561.18 1160.61 560.917 1161.18 561.109 1161.7L563.898 1169.2L556.399 1171.99C555.882 1172.18 555.618 1172.76 555.811 1173.28C556.003 1173.79 556.579 1174.06 557.096 1173.86L565.532 1170.73ZM-256.065 794.859L-245.804 799.557L-244.972 797.738L-255.232 793.04L-256.065 794.859ZM-225.283 808.953L-204.763 818.349L-203.93 816.53L-224.451 807.134L-225.283 808.953ZM-184.242 827.745L-163.721 837.141L-162.888 835.322L-183.409 825.926L-184.242 827.745ZM-143.2 846.537L-122.679 855.933L-121.847 854.114L-142.368 844.718L-143.2 846.537ZM-102.159 865.329L-81.6378 874.725L-80.8052 872.906L-101.326 863.51L-102.159 865.329ZM-61.117 884.121L-40.5962 893.517L-39.7636 891.698L-60.2844 882.302L-61.117 884.121ZM-20.0754 902.913L0.445364 912.309L1.27799 910.49L-19.2428 901.094L-20.0754 902.913ZM20.9662 921.705L41.4869 931.101L42.3196 929.282L21.7988 919.886L20.9662 921.705ZM62.0077 940.497L82.5285 949.893L83.3611 948.074L62.8403 938.678L62.0077 940.497ZM103.049 959.289L123.57 968.685L124.403 966.866L103.882 957.47L103.049 959.289ZM144.091 978.081L164.612 987.477L165.444 985.658L144.923 976.262L144.091 978.081ZM185.132 996.873L205.653 1006.27L206.486 1004.45L185.965 995.054L185.132 996.873ZM226.174 1015.66L246.695 1025.06L247.527 1023.24L227.007 1013.85L226.174 1015.66ZM267.216 1034.46L287.736 1043.85L288.569 1042.03L268.048 1032.64L267.216 1034.46ZM308.257 1053.25L328.778 1062.64L329.611 1060.83L309.09 1051.43L308.257 1053.25ZM349.299 1072.04L369.82 1081.44L370.652 1079.62L350.131 1070.22L349.299 1072.04ZM390.34 1090.83L410.861 1100.23L411.694 1098.41L391.173 1089.01L390.34 1090.83ZM431.382 1109.62L451.903 1119.02L452.736 1117.2L432.215 1107.81L431.382 1109.62ZM472.424 1128.42L492.945 1137.81L493.777 1135.99L473.256 1126.6L472.424 1128.42ZM513.465 1147.21L533.986 1156.61L534.819 1154.79L514.298 1145.39L513.465 1147.21ZM554.507 1166L564.767 1170.7L565.6 1168.88L555.34 1164.18L554.507 1166Z"
                  fill="#0066FF" mask="url(#)"/>
        </g>
        <g opacity="0.591633">
            <mask maskUnits="userSpaceOnUse" x="0" y="0" width="0" height="0" fill="black">
                <rect fill="white" width="0" height="0"/>
            </mask>
            <path d="M-256.322 803.152C-256.855 803.299 -257.167 803.85 -257.021 804.382L-254.631 813.059C-254.484 813.591 -253.934 813.904 -253.401 813.758C-252.869 813.611 -252.556 813.06 -252.703 812.528L-254.827 804.815L-247.114 802.691C-246.582 802.544 -246.269 801.994 -246.416 801.461C-246.562 800.929 -247.113 800.616 -247.645 800.763L-256.322 803.152ZM506.681 1238.26C507.213 1238.11 507.526 1237.56 507.379 1237.03L504.989 1228.35C504.843 1227.82 504.292 1227.51 503.76 1227.65C503.227 1227.8 502.915 1228.35 503.061 1228.88L505.185 1236.6L497.473 1238.72C496.94 1238.87 496.627 1239.42 496.774 1239.95C496.921 1240.48 497.471 1240.8 498.004 1240.65L506.681 1238.26ZM-256.551 804.986L-246.518 810.686L-245.53 808.947L-255.563 803.247L-256.551 804.986ZM-226.453 822.085L-206.388 833.485L-205.4 831.746L-225.465 820.346L-226.453 822.085ZM-186.323 844.884L-166.258 856.283L-165.27 854.545L-185.335 843.145L-186.323 844.884ZM-146.193 867.683L-126.128 879.082L-125.14 877.343L-145.205 865.944L-146.193 867.683ZM-106.063 890.482L-85.9978 901.881L-85.0099 900.142L-105.075 888.743L-106.063 890.482ZM-65.9328 913.281L-45.8677 924.68L-44.8798 922.941L-64.9448 911.542L-65.9328 913.281ZM-25.8027 936.08L-5.73763 947.479L-4.74969 945.74L-24.8147 934.341L-25.8027 936.08ZM14.3274 958.878L34.3924 970.278L35.3804 968.539L15.3153 957.14L14.3274 958.878ZM54.4575 981.677L74.5225 993.077L75.5105 991.338L55.4454 979.938L54.4575 981.677ZM94.5876 1004.48L114.653 1015.88L115.641 1014.14L95.5755 1002.74L94.5876 1004.48ZM134.718 1027.28L154.783 1038.67L155.771 1036.94L135.706 1025.54L134.718 1027.28ZM174.848 1050.07L194.913 1061.47L195.901 1059.73L175.836 1048.34L174.848 1050.07ZM214.978 1072.87L235.043 1084.27L236.031 1082.53L215.966 1071.13L214.978 1072.87ZM255.108 1095.67L275.173 1107.07L276.161 1105.33L256.096 1093.93L255.108 1095.67ZM295.238 1118.47L315.303 1129.87L316.291 1128.13L296.226 1116.73L295.238 1118.47ZM335.368 1141.27L355.433 1152.67L356.421 1150.93L336.356 1139.53L335.368 1141.27ZM375.498 1164.07L395.564 1175.47L396.551 1173.73L376.486 1162.33L375.498 1164.07ZM415.629 1186.87L435.694 1198.27L436.682 1196.53L416.617 1185.13L415.629 1186.87ZM455.759 1209.67L475.824 1221.07L476.812 1219.33L456.747 1207.93L455.759 1209.67ZM495.889 1232.47L505.921 1238.16L506.909 1236.43L496.877 1230.73L495.889 1232.47Z"
                  fill="#0066FF" mask="url(#)"/>
        </g>
        <g opacity="0.609388">
            <mask maskUnits="userSpaceOnUse" x="0" y="0" width="0" height="0" fill="black">
                <rect fill="white" width="0" height="0"/>
            </mask>
            <path d="M-256.656 813.303C-257.199 813.403 -257.558 813.924 -257.459 814.467L-255.834 823.319C-255.735 823.862 -255.213 824.222 -254.67 824.122C-254.127 824.023 -253.767 823.502 -253.867 822.958L-255.311 815.09L-247.442 813.646C-246.899 813.546 -246.54 813.025 -246.639 812.482C-246.739 811.939 -247.26 811.579 -247.803 811.679L-256.656 813.303ZM444.241 1298.57C444.784 1298.47 445.143 1297.95 445.044 1297.41L443.419 1288.56C443.32 1288.01 442.798 1287.65 442.255 1287.75C441.712 1287.85 441.352 1288.37 441.452 1288.92L442.896 1296.79L435.027 1298.23C434.484 1298.33 434.125 1298.85 434.224 1299.39C434.324 1299.94 434.845 1300.3 435.388 1300.2L444.241 1298.57ZM-257.043 815.11L-247.825 821.469L-246.69 819.823L-255.907 813.463L-257.043 815.11ZM-229.39 834.187L-210.955 846.906L-209.819 845.26L-228.255 832.541L-229.39 834.187ZM-192.52 859.624L-174.085 872.343L-172.949 870.697L-191.384 857.978L-192.52 859.624ZM-155.65 885.061L-137.215 897.78L-136.079 896.134L-154.514 883.415L-155.65 885.061ZM-118.779 910.498L-100.344 923.217L-99.2086 921.571L-117.644 908.852L-118.779 910.498ZM-81.9092 935.935L-63.474 948.654L-62.3383 947.008L-80.7734 934.289L-81.9092 935.935ZM-45.0389 961.372L-26.6038 974.091L-25.468 972.444L-43.9031 959.726L-45.0389 961.372ZM-8.16864 986.809L10.2665 999.528L11.4022 997.881L-7.03289 985.163L-8.16864 986.809ZM28.7016 1012.25L47.1367 1024.96L48.2725 1023.32L29.8373 1010.6L28.7016 1012.25ZM65.5718 1037.68L84.007 1050.4L85.1427 1048.76L66.7076 1036.04L65.5718 1037.68ZM102.442 1063.12L120.877 1075.84L122.013 1074.19L103.578 1061.47L102.442 1063.12ZM139.312 1088.56L157.747 1101.28L158.883 1099.63L140.448 1086.91L139.312 1088.56ZM176.183 1113.99L194.618 1126.71L195.753 1125.07L177.318 1112.35L176.183 1113.99ZM213.053 1139.43L231.488 1152.15L232.624 1150.5L214.189 1137.78L213.053 1139.43ZM249.923 1164.87L268.358 1177.59L269.494 1175.94L251.059 1163.22L249.923 1164.87ZM286.793 1190.3L305.229 1203.02L306.364 1201.38L287.929 1188.66L286.793 1190.3ZM323.664 1215.74L342.099 1228.46L343.235 1226.81L324.799 1214.1L323.664 1215.74ZM360.534 1241.18L378.969 1253.9L380.105 1252.25L361.67 1239.53L360.534 1241.18ZM397.404 1266.62L415.839 1279.33L416.975 1277.69L398.54 1264.97L397.404 1266.62ZM434.274 1292.05L443.492 1298.41L444.628 1296.77L435.41 1290.41L434.274 1292.05Z"
                  fill="#0066FF" mask="url(#)"/>
        </g>
        <g opacity="0.627143">
            <mask maskUnits="userSpaceOnUse" x="0" y="0" width="0" height="0" fill="black">
                <rect fill="white" width="0" height="0"/>
            </mask>
            <path d="M-256.999 823.463C-257.548 823.515 -257.952 824.003 -257.9 824.552L-257.053 833.513C-257.002 834.062 -256.514 834.466 -255.964 834.414C-255.414 834.362 -255.01 833.874 -255.062 833.324L-255.815 825.36L-247.85 824.607C-247.301 824.555 -246.897 824.067 -246.949 823.518C-247.001 822.968 -247.489 822.564 -248.039 822.616L-256.999 823.463ZM379.016 1351.49C379.566 1351.44 379.969 1350.95 379.917 1350.4L379.071 1341.44C379.019 1340.89 378.531 1340.49 377.981 1340.54C377.431 1340.59 377.027 1341.08 377.079 1341.63L377.832 1349.59L369.868 1350.35C369.318 1350.4 368.914 1350.89 368.966 1351.44C369.018 1351.99 369.506 1352.39 370.056 1352.34L379.016 1351.49ZM-257.542 825.229L-248.711 832.535L-247.436 830.994L-256.267 823.688L-257.542 825.229ZM-231.049 847.147L-213.387 861.759L-212.113 860.218L-229.774 845.606L-231.049 847.147ZM-195.726 876.371L-178.064 890.984L-176.789 889.443L-194.451 874.83L-195.726 876.371ZM-160.402 905.596L-142.74 920.208L-141.465 918.667L-159.127 904.055L-160.402 905.596ZM-125.078 934.82L-107.416 949.432L-106.141 947.891L-123.803 933.279L-125.078 934.82ZM-89.7545 964.044L-72.0927 978.657L-70.8178 977.116L-88.4796 962.503L-89.7545 964.044ZM-54.4309 993.269L-36.769 1007.88L-35.4941 1006.34L-53.156 991.728L-54.4309 993.269ZM-19.1072 1022.49L-1.44537 1037.11L-0.170464 1035.56L-17.8323 1020.95L-19.1072 1022.49ZM16.2165 1051.72L33.8783 1066.33L35.1532 1064.79L17.4914 1050.18L16.2165 1051.72ZM51.5401 1080.94L69.202 1095.55L70.4769 1094.01L52.815 1079.4L51.5401 1080.94ZM86.8638 1110.17L104.526 1124.78L105.801 1123.24L88.1387 1108.63L86.8638 1110.17ZM122.187 1139.39L139.849 1154L141.124 1152.46L123.462 1137.85L122.187 1139.39ZM157.511 1168.61L175.173 1183.23L176.448 1181.69L158.786 1167.07L157.511 1168.61ZM192.835 1197.84L210.497 1212.45L211.772 1210.91L194.11 1196.3L192.835 1197.84ZM228.159 1227.06L245.821 1241.68L247.095 1240.13L229.434 1225.52L228.159 1227.06ZM263.482 1256.29L281.144 1270.9L282.419 1269.36L264.757 1254.75L263.482 1256.29ZM298.806 1285.51L316.468 1300.12L317.743 1298.58L300.081 1283.97L298.806 1285.51ZM334.13 1314.74L351.792 1329.35L353.067 1327.81L335.405 1313.2L334.13 1314.74ZM369.454 1343.96L378.284 1351.27L379.559 1349.73L370.728 1342.42L369.454 1343.96Z"
                  fill="#0066FF" mask="url(#)"/>
        </g>
        <g opacity="0.644898">
            <mask maskUnits="userSpaceOnUse" x="0" y="0" width="0" height="0" fill="black">
                <rect fill="white" width="0" height="0"/>
            </mask>
            <path d="M-257.351 833.631C-257.903 833.635 -258.348 834.086 -258.344 834.638L-258.282 843.638C-258.278 844.19 -257.827 844.635 -257.275 844.631C-256.722 844.627 -256.278 844.176 -256.282 843.624L-256.337 835.624L-248.337 835.569C-247.785 835.565 -247.341 835.114 -247.344 834.562C-247.348 834.01 -247.799 833.565 -248.351 833.569L-257.351 833.631ZM311.814 1396.93C312.366 1396.93 312.811 1396.47 312.807 1395.92L312.745 1386.92C312.741 1386.37 312.29 1385.93 311.738 1385.93C311.185 1385.93 310.741 1386.38 310.745 1386.94L310.8 1394.94L302.8 1394.99C302.248 1395 301.803 1395.45 301.807 1396C301.811 1396.55 302.262 1397 302.814 1396.99L311.814 1396.93ZM-258.046 835.343L-249.676 843.598L-248.272 842.174L-256.642 833.919L-258.046 835.343ZM-232.937 860.106L-216.197 876.615L-214.793 875.191L-231.532 858.682L-232.937 860.106ZM-199.457 893.124L-182.717 909.633L-181.313 908.209L-198.053 891.7L-199.457 893.124ZM-165.978 926.141L-149.238 942.65L-147.834 941.226L-164.573 924.717L-165.978 926.141ZM-132.498 959.159L-115.759 975.668L-114.354 974.244L-131.094 957.735L-132.498 959.159ZM-99.0188 992.176L-82.279 1008.69L-80.8747 1007.26L-97.6144 990.752L-99.0188 992.176ZM-65.5393 1025.19L-48.7996 1041.7L-47.3952 1040.28L-64.1349 1023.77L-65.5393 1025.19ZM-32.0598 1058.21L-15.3201 1074.72L-13.9157 1073.3L-30.6555 1056.79L-32.0598 1058.21ZM1.41964 1091.23L18.1594 1107.74L19.5637 1106.31L2.824 1089.81L1.41964 1091.23ZM34.8991 1124.25L51.6389 1140.76L53.0432 1139.33L36.3035 1122.82L34.8991 1124.25ZM68.3786 1157.26L85.1183 1173.77L86.5227 1172.35L69.7829 1155.84L68.3786 1157.26ZM101.858 1190.28L118.598 1206.79L120.002 1205.37L103.262 1188.86L101.858 1190.28ZM135.338 1223.3L152.077 1239.81L153.482 1238.38L136.742 1221.88L135.338 1223.3ZM168.817 1256.32L185.557 1272.83L186.961 1271.4L170.221 1254.89L168.817 1256.32ZM202.297 1289.33L219.036 1305.84L220.441 1304.42L203.701 1287.91L202.297 1289.33ZM235.776 1322.35L252.516 1338.86L253.92 1337.44L237.18 1320.93L235.776 1322.35ZM269.255 1355.37L285.995 1371.88L287.4 1370.45L270.66 1353.95L269.255 1355.37ZM302.735 1388.39L311.105 1396.64L312.509 1395.22L304.139 1386.96L302.735 1388.39Z"
                  fill="#0066FF" mask="url(#)"/>
        </g>
        <g opacity="0.662653">
            <mask maskUnits="userSpaceOnUse" x="0" y="0" width="0" height="0" fill="black">
                <rect fill="white" width="0" height="0"/>
            </mask>
            <path d="M-257.715 843.807C-258.265 843.763 -258.748 844.174 -258.792 844.724L-259.514 853.695C-259.558 854.246 -259.148 854.728 -258.597 854.772C-258.047 854.816 -257.565 854.406 -257.52 853.855L-256.879 845.881L-248.904 846.523C-248.354 846.567 -247.872 846.157 -247.827 845.607C-247.783 845.056 -248.193 844.574 -248.744 844.53L-257.715 843.807ZM243.434 1434.88C243.984 1434.92 244.466 1434.51 244.511 1433.96L245.233 1424.99C245.277 1424.44 244.867 1423.96 244.316 1423.91C243.766 1423.87 243.284 1424.28 243.239 1424.83L242.597 1432.8L234.623 1432.16C234.073 1432.12 233.59 1432.53 233.546 1433.08C233.502 1433.63 233.912 1434.11 234.463 1434.16L243.434 1434.88ZM-258.557 845.452L-251.184 854.115L-249.661 852.819L-257.033 844.156L-258.557 845.452ZM-236.44 871.441L-221.696 888.767L-220.173 887.471L-234.917 870.145L-236.44 871.441ZM-206.951 906.093L-192.207 923.418L-190.684 922.122L-205.428 904.796L-206.951 906.093ZM-177.463 940.744L-162.718 958.07L-161.195 956.774L-175.939 939.448L-177.463 940.744ZM-147.974 975.396L-133.229 992.722L-131.706 991.425L-146.451 974.1L-147.974 975.396ZM-118.485 1010.05L-103.741 1027.37L-102.218 1026.08L-116.962 1008.75L-118.485 1010.05ZM-88.9962 1044.7L-74.2518 1062.02L-72.7287 1060.73L-87.4731 1043.4L-88.9962 1044.7ZM-59.5075 1079.35L-44.7631 1096.68L-43.2399 1095.38L-57.9843 1078.05L-59.5075 1079.35ZM-30.0187 1114L-15.2743 1131.33L-13.7512 1130.03L-28.4956 1112.71L-30.0187 1114ZM-0.529896 1148.65L14.2145 1165.98L15.7376 1164.68L0.993225 1147.36L-0.529896 1148.65ZM28.9589 1183.31L43.7033 1200.63L45.2264 1199.34L30.482 1182.01L28.9589 1183.31ZM58.4477 1217.96L73.1921 1235.28L74.7152 1233.99L59.9708 1216.66L58.4477 1217.96ZM87.9365 1252.61L102.681 1269.93L104.204 1268.64L89.4596 1251.31L87.9365 1252.61ZM117.425 1287.26L132.17 1304.59L133.693 1303.29L118.948 1285.96L117.425 1287.26ZM146.914 1321.91L161.658 1339.24L163.181 1337.94L148.437 1320.62L146.914 1321.91ZM176.403 1356.56L191.147 1373.89L192.67 1372.59L177.926 1355.27L176.403 1356.56ZM205.891 1391.21L220.636 1408.54L222.159 1407.24L207.415 1389.92L205.891 1391.21ZM235.38 1425.87L242.752 1434.53L244.275 1433.23L236.903 1424.57L235.38 1425.87Z"
                  fill="#0066FF" mask="url(#)"/>
        </g>
        <g opacity="0.680408">
            <mask maskUnits="userSpaceOnUse" x="0" y="0" width="0" height="0" fill="black">
                <rect fill="white" width="0" height="0"/>
            </mask>
            <path d="M-258.09 853.99C-258.634 853.898 -259.15 854.265 -259.242 854.809L-260.744 863.683C-260.836 864.228 -260.469 864.744 -259.924 864.836C-259.38 864.928 -258.864 864.561 -258.772 864.017L-257.437 856.129L-249.549 857.463C-249.005 857.555 -248.489 857.189 -248.396 856.644C-248.304 856.099 -248.671 855.583 -249.216 855.491L-258.09 853.99ZM174.661 1465.41C175.205 1465.51 175.721 1465.14 175.813 1464.6L177.315 1455.72C177.407 1455.18 177.04 1454.66 176.495 1454.57C175.951 1454.48 175.435 1454.84 175.343 1455.39L174.008 1463.28L166.12 1461.94C165.576 1461.85 165.06 1462.22 164.967 1462.76C164.875 1463.3 165.242 1463.82 165.787 1463.91L174.661 1465.41ZM-259.072 855.555L-252.305 865.078L-250.674 863.919L-257.441 854.397L-259.072 855.555ZM-238.771 884.123L-225.237 903.169L-223.607 902.01L-237.14 882.965L-238.771 884.123ZM-211.703 922.214L-198.169 941.259L-196.539 940.101L-210.073 921.056L-211.703 922.214ZM-184.635 960.305L-171.101 979.35L-169.471 978.192L-183.005 959.146L-184.635 960.305ZM-157.568 998.396L-144.034 1017.44L-142.403 1016.28L-155.937 997.237L-157.568 998.396ZM-130.5 1036.49L-116.966 1055.53L-115.336 1054.37L-128.869 1035.33L-130.5 1036.49ZM-103.432 1074.58L-89.8982 1093.62L-88.2679 1092.46L-101.802 1073.42L-103.432 1074.58ZM-76.3643 1112.67L-62.8305 1131.71L-61.2002 1130.55L-74.734 1111.51L-76.3643 1112.67ZM-49.2966 1150.76L-35.7628 1169.8L-34.1325 1168.65L-47.6663 1149.6L-49.2966 1150.76ZM-22.2289 1188.85L-8.69505 1207.89L-7.06475 1206.74L-20.5986 1187.69L-22.2289 1188.85ZM4.83882 1226.94L18.3727 1245.99L20.003 1244.83L6.46911 1225.78L4.83882 1226.94ZM31.9065 1265.03L45.4404 1284.08L47.0707 1282.92L33.5368 1263.87L31.9065 1265.03ZM58.9743 1303.12L72.5081 1322.17L74.1384 1321.01L60.6045 1301.96L58.9743 1303.12ZM86.042 1341.21L99.5758 1360.26L101.206 1359.1L87.6723 1340.05L86.042 1341.21ZM113.11 1379.3L126.644 1398.35L128.274 1397.19L114.74 1378.14L113.11 1379.3ZM140.177 1417.39L153.711 1436.44L155.342 1435.28L141.808 1416.24L140.177 1417.39ZM167.245 1455.48L174.012 1465.01L175.642 1463.85L168.875 1454.33L167.245 1455.48Z"
                  fill="#0066FF" mask="url(#)"/>
        </g>
        <g opacity="0.698163">
            <mask maskUnits="userSpaceOnUse" x="0" y="0" width="0" height="0" fill="black">
                <rect fill="white" width="0" height="0"/>
            </mask>
            <path d="M-258.477 864.179C-259.011 864.039 -259.557 864.36 -259.696 864.894L-261.965 873.603C-262.104 874.138 -261.784 874.684 -261.25 874.823C-260.715 874.962 -260.169 874.642 -260.03 874.108L-258.013 866.366L-250.271 868.383C-249.737 868.522 -249.191 868.202 -249.052 867.667C-248.912 867.133 -249.233 866.587 -249.767 866.447L-258.477 864.179ZM106.255 1488.69C106.79 1488.83 107.336 1488.51 107.475 1487.98L109.744 1479.27C109.883 1478.73 109.563 1478.19 109.028 1478.05C108.494 1477.91 107.948 1478.23 107.809 1478.76L105.792 1486.51L98.0502 1484.49C97.5157 1484.35 96.9696 1484.67 96.8304 1485.2C96.6911 1485.74 97.0115 1486.28 97.546 1486.42L106.255 1488.69ZM-259.591 865.652L-253.884 875.38L-252.159 874.368L-257.866 864.64L-259.591 865.652ZM-242.471 894.836L-231.057 914.291L-229.332 913.279L-240.746 893.824L-242.471 894.836ZM-219.643 933.747L-208.23 953.202L-206.505 952.19L-217.918 932.735L-219.643 933.747ZM-196.816 972.658L-185.403 992.114L-183.678 991.101L-195.091 971.646L-196.816 972.658ZM-173.989 1011.57L-162.575 1031.02L-160.85 1030.01L-172.264 1010.56L-173.989 1011.57ZM-151.162 1050.48L-139.748 1069.94L-138.023 1068.92L-149.437 1049.47L-151.162 1050.48ZM-128.334 1089.39L-116.921 1108.85L-115.196 1107.83L-126.609 1088.38L-128.334 1089.39ZM-105.507 1128.3L-94.0936 1147.76L-92.3685 1146.75L-103.782 1127.29L-105.507 1128.3ZM-82.68 1167.21L-71.2663 1186.67L-69.5413 1185.66L-80.9549 1166.2L-82.68 1167.21ZM-59.8527 1206.12L-48.4391 1225.58L-46.714 1224.57L-58.1276 1205.11L-59.8527 1206.12ZM-37.0254 1245.04L-25.6118 1264.49L-23.8867 1263.48L-35.3004 1244.02L-37.0254 1245.04ZM-14.1982 1283.95L-2.78455 1303.4L-1.05948 1302.39L-12.4731 1282.94L-14.1982 1283.95ZM8.62908 1322.86L20.0427 1342.31L21.7678 1341.3L10.3541 1321.85L8.62908 1322.86ZM31.4564 1361.77L42.87 1381.23L44.595 1380.21L33.1814 1360.76L31.4564 1361.77ZM54.2836 1400.68L65.6972 1420.14L67.4223 1419.12L56.0087 1399.67L54.2836 1400.68ZM77.1109 1439.59L88.5245 1459.05L90.2496 1458.04L78.8359 1438.58L77.1109 1439.59ZM99.9381 1478.5L105.645 1488.23L107.37 1487.22L101.663 1477.49L99.9381 1478.5Z"
                  fill="#0066FF" mask="url(#)"/>
        </g>
        <g opacity="0.715918">
            <mask maskUnits="userSpaceOnUse" x="0" y="0" width="0" height="0" fill="black">
                <rect fill="white" width="0" height="0"/>
            </mask>
            <path d="M-258.875 874.372C-259.396 874.186 -259.968 874.458 -260.153 874.978L-263.172 883.457C-263.358 883.977 -263.086 884.549 -262.566 884.734C-262.045 884.92 -261.473 884.648 -261.288 884.128L-258.604 876.591L-251.068 879.275C-250.548 879.46 -249.976 879.189 -249.79 878.669C-249.605 878.148 -249.877 877.576 -250.397 877.391L-258.875 874.372ZM38.9495 1504.94C39.4698 1505.13 40.0417 1504.86 40.227 1504.34L43.2464 1495.86C43.4316 1495.34 43.1601 1494.77 42.6398 1494.58C42.1195 1494.39 41.5476 1494.67 41.3623 1495.19L38.6784 1502.72L31.142 1500.04C30.6218 1499.85 30.0498 1500.13 29.8645 1500.65C29.6792 1501.17 29.9508 1501.74 30.4711 1501.92L38.9495 1504.94ZM-260.114 875.743L-255.139 886.221L-253.333 885.363L-258.307 874.885L-260.114 875.743ZM-245.189 907.177L-235.24 928.133L-233.433 927.275L-243.383 906.319L-245.189 907.177ZM-225.29 949.089L-215.34 970.046L-213.533 969.188L-223.483 948.232L-225.29 949.089ZM-205.39 991.002L-195.44 1011.96L-193.633 1011.1L-203.583 990.144L-205.39 991.002ZM-185.49 1032.91L-175.54 1053.87L-173.734 1053.01L-183.684 1032.06L-185.49 1032.91ZM-165.591 1074.83L-155.641 1095.78L-153.834 1094.93L-163.784 1073.97L-165.591 1074.83ZM-145.691 1116.74L-135.741 1137.7L-133.934 1136.84L-143.884 1115.88L-145.691 1116.74ZM-125.791 1158.65L-115.841 1179.61L-114.035 1178.75L-123.984 1157.79L-125.791 1158.65ZM-105.891 1200.56L-95.9415 1221.52L-94.1348 1220.66L-104.085 1199.71L-105.891 1200.56ZM-85.9916 1242.48L-76.0418 1263.43L-74.2351 1262.57L-84.1849 1241.62L-85.9916 1242.48ZM-66.0919 1284.39L-56.142 1305.35L-54.3353 1304.49L-64.2852 1283.53L-66.0919 1284.39ZM-46.1922 1326.3L-36.2423 1347.26L-34.4356 1346.4L-44.3855 1325.44L-46.1922 1326.3ZM-26.2925 1368.21L-16.3426 1389.17L-14.5359 1388.31L-24.4858 1367.36L-26.2925 1368.21ZM-6.39279 1410.13L3.55705 1431.08L5.36375 1430.22L-4.58609 1409.27L-6.39279 1410.13ZM13.5069 1452.04L23.4567 1472.99L25.2634 1472.14L15.3136 1451.18L13.5069 1452.04ZM33.4066 1493.95L38.3816 1504.43L40.1883 1503.57L35.2133 1493.09L33.4066 1493.95Z"
                  fill="#0066FF" mask="url(#)"/>
        </g>
    </g>
</svg>
