<svg xmlns="http://www.w3.org/2000/svg" width="391" height="252" fill="none"><g filter="url(#filter0_d)"><rect width="282" height="84" x="85" y="16" fill="#fff" rx="4"/><path stroke="#B3B3B3" stroke-linecap="round" stroke-linejoin="round" stroke-width="2" d="M129.667 46.9267V48c-.002 2.5158-.816 4.9638-2.323 6.9788-1.506 2.015-3.623 3.4891-6.036 4.2024-2.413.7133-4.991.6277-7.351-.2442-2.36-.8718-4.375-2.4832-5.744-4.5937-1.369-2.1106-2.02-4.6072-1.854-7.1176.165-2.5104 1.138-4.9 2.772-6.8124 1.635-1.9125 3.844-3.2453 6.298-3.7998 2.454-.5544 5.021-.3008 7.319.7232"/><path stroke="#B3B3B3" stroke-linecap="round" stroke-linejoin="round" stroke-width="2" d="M129.667 38.6665L118 50.3448l-3.5-3.5"/><path fill="#F6F6F6" d="M150 29h175.66v11H150z"/><path fill="#F1F1F1" d="M150 48h77.9417v11H150z"/><path fill="#E2E2E2" d="M150 68h120.984v11H150z"/></g><g filter="url(#filter1_d)"><rect width="282" height="84" x="56" y="76" fill="#fff" rx="4"/><path stroke="#B3B3B3" stroke-linecap="round" stroke-linejoin="round" stroke-width="2" d="M100.667 106.927V108c-.002 2.516-.8164 4.964-2.3227 6.979-1.5064 2.015-3.6238 3.489-6.0363 4.202-2.4126.714-4.9912.628-7.3511-.244-2.3599-.872-4.3748-2.483-5.7441-4.594-1.3693-2.11-2.0197-4.607-1.8541-7.117.1655-2.511 1.1381-4.9 2.7727-6.813 1.6346-1.9122 3.8436-3.245 6.2975-3.7995 2.454-.5544 5.0215-.3008 7.3195.7232"/><path stroke="#B3B3B3" stroke-linecap="round" stroke-linejoin="round" stroke-width="2" d="M100.667 98.6665L89 110.345l-3.5-3.5"/><path fill="#F6F6F6" d="M121 89h175.66v11H121z"/><path fill="#F1F1F1" d="M121 108h77.9417v11H121z"/><path fill="#E2E2E2" d="M121 128h120.984v11H121z"/></g><g filter="url(#filter2_d)"><rect width="282" height="84" x="24" y="136" fill="#fff" rx="4"/><path stroke="#B3B3B3" stroke-linecap="round" stroke-linejoin="round" stroke-width="2" d="M68.6667 166.927V168c-.0014 2.516-.8161 4.964-2.3224 6.979-1.5064 2.015-3.6238 3.489-6.0363 4.202-2.4126.714-4.9912.628-7.3511-.244-2.3599-.872-4.3748-2.483-5.7441-4.594-1.3693-2.11-2.0197-4.607-1.8541-7.117.1655-2.511 1.1381-4.9 2.7727-6.813 1.6346-1.912 3.8436-3.245 6.2975-3.799 2.454-.555 5.0215-.301 7.3195.723"/><path stroke="#B3B3B3" stroke-linecap="round" stroke-linejoin="round" stroke-width="2" d="M68.6667 158.667L57 170.345l-3.5-3.5"/><path fill="#F6F6F6" d="M89 149h175.66v11H89z"/><path fill="#F1F1F1" d="M89 168h77.9417v11H89z"/><path fill="#E2E2E2" d="M89 188h120.984v11H89z"/></g><defs><filter id="filter0_d" width="330" height="132" x="61" y="0" color-interpolation-filters="sRGB" filterUnits="userSpaceOnUse"><feFlood flood-opacity="0" result="BackgroundImageFix"/><feColorMatrix in="SourceAlpha" values="0 0 0 0 0 0 0 0 0 0 0 0 0 0 0 0 0 0 127 0"/><feOffset dy="8"/><feGaussianBlur stdDeviation="12"/><feColorMatrix values="0 0 0 0 0 0 0 0 0 0 0 0 0 0 0 0 0 0 0.1 0"/><feBlend in2="BackgroundImageFix" result="effect1_dropShadow"/><feBlend in="SourceGraphic" in2="effect1_dropShadow" result="shape"/></filter><filter id="filter1_d" width="330" height="132" x="32" y="60" color-interpolation-filters="sRGB" filterUnits="userSpaceOnUse"><feFlood flood-opacity="0" result="BackgroundImageFix"/><feColorMatrix in="SourceAlpha" values="0 0 0 0 0 0 0 0 0 0 0 0 0 0 0 0 0 0 127 0"/><feOffset dy="8"/><feGaussianBlur stdDeviation="12"/><feColorMatrix values="0 0 0 0 0 0 0 0 0 0 0 0 0 0 0 0 0 0 0.1 0"/><feBlend in2="BackgroundImageFix" result="effect1_dropShadow"/><feBlend in="SourceGraphic" in2="effect1_dropShadow" result="shape"/></filter><filter id="filter2_d" width="330" height="132" x="0" y="120" color-interpolation-filters="sRGB" filterUnits="userSpaceOnUse"><feFlood flood-opacity="0" result="BackgroundImageFix"/><feColorMatrix in="SourceAlpha" values="0 0 0 0 0 0 0 0 0 0 0 0 0 0 0 0 0 0 127 0"/><feOffset dy="8"/><feGaussianBlur stdDeviation="12"/><feColorMatrix values="0 0 0 0 0 0 0 0 0 0 0 0 0 0 0 0 0 0 0.1 0"/><feBlend in2="BackgroundImageFix" result="effect1_dropShadow"/><feBlend in="SourceGraphic" in2="effect1_dropShadow" result="shape"/></filter></defs></svg>